<?xml version="1.0" standalone="no"?>
<!DOCTYPE svg PUBLIC "-//W3C//DTD SVG 20010904//EN"
 "http://www.w3.org/TR/2001/REC-SVG-20010904/DTD/svg10.dtd">
<svg version="1.0" xmlns="http://www.w3.org/2000/svg"
 width="1280.000000pt" height="640.000000pt" viewBox="0 0 1280.000000 640.000000"
 preserveAspectRatio="xMidYMid meet">
<metadata>
Created by potrace 1.15, written by Peter Selinger 2001-2017
</metadata>
<g transform="translate(0.000000,640.000000) scale(0.100000,-0.100000)"
fill="#000000" stroke="none">
<path d="M4180 6218 l0 -69 -77 6 c-43 3 -276 15 -518 26 -242 10 -527 24
-634 29 -107 6 -195 9 -196 8 -2 -2 45 -46 103 -98 l105 -95 -94 -8 c-501 -41
-526 -45 -819 -133 -102 -30 -193 -58 -203 -61 -11 -3 -16 -11 -13 -20 11 -28
208 -328 234 -355 14 -15 24 -30 21 -32 -2 -2 -38 2 -79 9 -129 23 -298 35
-480 35 -173 0 -176 0 -176 -21 0 -28 135 -171 192 -205 24 -14 44 -27 44 -29
0 -1 -30 0 -67 2 -93 7 -196 -11 -335 -57 -182 -61 -436 -188 -521 -261 -14
-11 11 -47 43 -64 16 -8 55 -15 86 -15 l58 0 -67 -66 c-37 -36 -83 -85 -102
-109 -36 -43 -87 -153 -78 -167 7 -13 209 -9 348 7 72 8 139 15 150 15 11 -1
-38 -30 -108 -65 -208 -104 -273 -159 -336 -282 -11 -23 -21 -44 -21 -47 0 -2
17 0 38 5 20 5 82 9 137 9 116 1 198 16 278 53 31 14 57 25 57 23 0 -2 -64
-50 -243 -181 -26 -19 -81 -87 -144 -179 -57 -81 -103 -149 -103 -151 0 -2 31
14 70 36 64 37 72 39 107 30 21 -6 53 -11 70 -11 l33 0 -44 -67 c-50 -77 -51
-76 49 -88 l59 -8 -25 -19 c-73 -59 -159 -160 -159 -189 0 -4 21 -14 47 -23
59 -20 195 -21 323 -1 52 8 95 13 97 11 1 -1 -24 -47 -57 -101 -57 -93 -59
-99 -43 -117 21 -23 14 -29 -65 -60 -35 -14 -64 -29 -64 -34 -1 -10 207 -153
283 -194 31 -16 80 -36 110 -44 l54 -14 -60 -7 c-166 -20 -247 -44 -420 -128
-93 -45 -172 -82 -173 -84 -5 -2 76 -75 107 -95 44 -30 171 -79 263 -103 l89
-22 -123 -6 c-144 -8 -238 -26 -315 -62 -57 -26 -233 -151 -233 -165 0 -11 52
-55 147 -125 45 -33 82 -63 83 -67 1 -21 -205 -28 -417 -15 l-133 9 0 -44 c0
-55 25 -96 91 -148 71 -56 154 -97 214 -105 93 -14 90 -22 -11 -28 -199 -12
-327 -49 -496 -144 l-117 -66 31 -39 c62 -78 158 -119 285 -121 46 -1 83 -5
83 -8 0 -3 -11 -11 -24 -17 -53 -24 -346 -275 -346 -296 0 -26 120 -143 177
-173 86 -45 118 -50 513 -81 l85 -7 6 -40 c4 -22 1 -107 -7 -190 -7 -82 -10
-152 -6 -156 16 -14 245 -39 354 -39 130 0 190 16 317 86 35 19 65 34 66 32 1
-2 13 -21 27 -43 14 -22 37 -59 51 -82 l26 -42 76 26 c157 52 303 198 407 403
24 47 44 87 45 89 2 2 44 -10 95 -27 51 -18 129 -39 174 -47 83 -16 372 -35
434 -29 19 2 193 11 385 20 227 11 353 21 357 28 13 19 9 85 -6 115 -10 18
-41 42 -88 66 l-73 39 135 23 c84 14 184 23 265 24 l130 2 114 -42 c116 -44
263 -84 339 -94 36 -4 42 -3 38 11 -2 10 -7 43 -11 75 l-7 58 109 -69 c143
-92 272 -155 402 -199 91 -31 119 -37 201 -37 79 -1 102 3 136 21 22 12 47 29
54 38 13 15 15 15 29 -4 28 -35 223 -200 291 -245 36 -23 99 -61 141 -84 l76
-41 30 32 c43 45 53 68 60 142 6 65 10 73 29 56 39 -39 371 -129 505 -138 86
-6 87 -5 104 21 25 38 14 86 -40 173 -25 41 -40 71 -32 66 7 -4 47 -34 89 -66
146 -111 316 -189 466 -213 l42 -7 0 -103 0 -104 55 0 c31 0 86 7 122 17 59
14 75 24 138 85 40 37 76 68 80 68 4 0 29 -18 55 -40 55 -46 154 -94 238 -115
73 -19 283 -38 294 -27 4 4 12 30 17 58 14 72 -2 127 -61 212 -27 40 -48 75
-46 78 3 2 51 -14 106 -36 56 -22 134 -49 174 -60 99 -27 277 -59 283 -51 2 4
-5 42 -16 85 -11 43 -19 79 -17 81 3 2 222 -76 633 -225 152 -55 316 -103 324
-95 3 3 -10 35 -28 72 -17 36 -30 67 -28 69 2 2 33 -7 68 -20 124 -46 218 -76
326 -100 208 -48 284 -56 545 -56 l247 0 0 143 0 142 128 6 c135 7 215 21 378
67 l100 28 -2 39 c-5 82 -40 170 -90 226 -41 45 -44 51 -23 44 41 -13 357 -18
455 -6 49 6 186 31 303 56 117 25 215 45 217 45 3 0 5 8 5 18 0 24 -51 104
-112 174 l-49 57 68 21 c38 12 118 26 181 31 91 7 566 93 581 105 16 13 -161
200 -238 252 -31 20 -116 69 -188 107 -73 39 -133 72 -133 75 0 3 21 3 46 1
25 -2 74 2 108 9 64 13 206 73 206 87 0 15 -62 68 -110 96 -91 51 -254 87
-398 87 -37 0 -114 19 -253 62 -109 34 -199 65 -199 69 0 4 16 36 36 69 110
188 213 452 183 471 -7 4 -89 10 -183 14 -187 8 -319 -1 -558 -38 -90 -14
-144 -19 -141 -13 11 20 66 91 92 119 60 65 36 71 -233 62 l-202 -8 -75 58
c-81 63 -192 119 -327 164 -140 47 -492 112 -700 129 l-92 8 57 -59 58 -59
-70 6 c-122 11 -495 26 -642 26 -133 0 -143 -1 -143 -19 0 -26 57 -161 78
-185 16 -19 16 -19 -3 -12 -11 4 -84 22 -163 40 l-143 33 -25 -19 c-43 -34
-30 -67 41 -105 33 -17 60 -35 60 -40 0 -4 4 -13 8 -20 8 -13 4 -14 -142 -33
-128 -17 -197 -43 -279 -104 -40 -30 -85 -57 -100 -61 -15 -3 -52 2 -83 12
l-56 18 24 66 25 66 101 6 c108 6 217 33 258 66 13 10 39 22 57 25 17 4 32 13
32 19 0 40 -327 255 -557 366 l-54 26 108 0 c81 0 131 6 201 24 50 13 92 27
92 32 0 19 -79 86 -140 118 -36 19 -94 57 -130 84 -35 27 -86 61 -112 76 -55
30 -60 41 -19 41 39 0 45 12 21 43 -47 59 -172 95 -340 98 -71 1 -120 9 -194
30 -55 16 -110 29 -122 29 -13 0 -25 4 -28 9 -3 4 45 11 107 14 62 3 196 18
299 33 215 32 211 27 89 108 -226 148 -409 192 -836 197 -99 1 -209 15 -148
18 32 1 210 59 258 83 60 31 95 60 112 92 13 25 43 112 43 127 0 3 -43 18 -96
34 l-96 28 43 22 42 22 -35 7 c-19 3 -61 25 -93 47 -88 61 -154 96 -212 109
-29 7 -53 13 -53 14 0 1 40 43 89 93 49 50 104 113 122 140 31 44 34 55 37
135 4 87 4 87 -22 94 -14 3 -26 13 -26 21 0 20 -132 80 -218 98 -123 25 -407
14 -599 -24 -50 -10 -49 -14 -27 89 13 65 14 99 4 255 -7 99 -16 185 -21 190
-6 6 -68 10 -147 10 -127 -1 -141 -3 -195 -28 -32 -14 -71 -36 -88 -47 l-29
-22 -63 49 c-166 131 -380 256 -502 293 -137 41 -317 77 -572 114 l-93 13 0
-69z m-2619 -3072 c3 -3 0 -43 -5 -90 -11 -101 -6 -98 -128 -60 -87 28 -156
60 -198 93 l-24 19 54 16 c30 8 66 17 80 19 35 6 216 8 221 3z"/>
</g>
</svg>
