<?xml version="1.0" encoding="UTF-8" standalone="no"?>
<!-- Created with Inkscape (http://www.inkscape.org/) -->
<svg xmlns:inkscape="http://www.inkscape.org/namespaces/inkscape" xmlns:rdf="http://www.w3.org/1999/02/22-rdf-syntax-ns#" xmlns="http://www.w3.org/2000/svg" xmlns:xlink="http://www.w3.org/1999/xlink" xmlns:ns1="http://sozi.baierouge.fr" xmlns:cc="http://creativecommons.org/ns#" xmlns:sodipodi="http://sodipodi.sourceforge.net/DTD/sodipodi-0.dtd" xmlns:dc="http://purl.org/dc/elements/1.1/" id="svg2" xml:space="preserve" viewBox="0 0 124.22 39.302" version="1.1" inkscape:version="0.91 r13725">
  <defs id="defs6">
    <linearGradient id="linearGradient30" y2="-90.373" gradientUnits="userSpaceOnUse" x2="23.847" gradientTransform="matrix(.000052718 -.8 -.8 .0008 .0017855 31.442)" y1="-90.373" x1="8.6719">
      <stop id="stop32" style="stop-color:#ffffff" offset="0"/>
      <stop id="stop34" style="stop-color:#c8dae3" offset="1"/>
    </linearGradient>
    <linearGradient id="linearGradient48" y2="-105.54" gradientUnits="userSpaceOnUse" x2="30.757" gradientTransform="matrix(.000076010 -.8 -.8 .0008 .0020806 31.442)" y1="-105.54" x1="20.232">
      <stop id="stop50" style="stop-color:#ffffff" offset="0"/>
      <stop id="stop52" style="stop-color:#c8dae3" offset="1"/>
    </linearGradient>
    <linearGradient id="linearGradient68" y2="-86.73" gradientUnits="userSpaceOnUse" x2="26.538" gradientTransform="matrix(.00019753 -.8 -.8 .0008 .0017698 31.442)" y1="-86.73" x1="22.488">
      <stop id="stop70" style="stop-color:#ffffff" offset="0"/>
      <stop id="stop72" style="stop-color:#c8dae3" offset="1"/>
    </linearGradient>
    <linearGradient id="linearGradient88" y2="-100.69" gradientUnits="userSpaceOnUse" x2="31.224" gradientTransform="matrix(.00017582 -.8 -.8 .0008 .0018570 31.442)" y1="-100.69" x1="26.674">
      <stop id="stop90" style="stop-color:#ffffff" offset="0"/>
      <stop id="stop92" style="stop-color:#c8dae3" offset="1"/>
    </linearGradient>
    <linearGradient id="linearGradient106" y2="-75.19" gradientUnits="userSpaceOnUse" x2="37.888" gradientTransform="matrix(.000064909 -.8 -.8 .0008 .0024562 31.442)" y1="-75.19" x1="25.562">
      <stop id="stop108" style="stop-color:#ffffff" offset="0"/>
      <stop id="stop110" style="stop-color:#c8dae3" offset="1"/>
    </linearGradient>
    <linearGradient id="linearGradient124" y2="-71.754" gradientUnits="userSpaceOnUse" x2="12.516" gradientTransform="matrix(.000074942 -.8 -.8 .0008 .0019910 31.442)" y1="-71.754" x1="1.8408">
      <stop id="stop126" style="stop-color:#ffffff" offset="0"/>
      <stop id="stop128" style="stop-color:#c8dae3" offset="1"/>
    </linearGradient>
    <linearGradient id="linearGradient142" y2="-75.974" gradientUnits="userSpaceOnUse" x2="16.986" gradientTransform="matrix(.00012075 -.8 -.8 .0008 .0017986 31.442)" y1="-75.974" x1="10.361">
      <stop id="stop144" style="stop-color:#ffffff" offset="0"/>
      <stop id="stop146" style="stop-color:#c8dae3" offset="1"/>
    </linearGradient>
    <linearGradient id="linearGradient160" y2="-59.819" gradientUnits="userSpaceOnUse" x2="25.115" gradientTransform="matrix(.000055363 -.8 -.8 .0008 .0021959 31.442)" y1="-59.819" x1="10.665">
      <stop id="stop162" style="stop-color:#ffffff" offset="0"/>
      <stop id="stop164" style="stop-color:#c8dae3" offset="1"/>
    </linearGradient>
    <linearGradient id="linearGradient180" y2="-77.954" gradientUnits="userSpaceOnUse" x2="22.222" gradientTransform="matrix(.0004 -.8 -.8 .0008 .0017557 31.442)" y1="-77.954" x1="20.222">
      <stop id="stop182" style="stop-color:#ffffff" offset="0"/>
      <stop id="stop184" style="stop-color:#c8dae3" offset="1"/>
    </linearGradient>
    <linearGradient id="linearGradient198" y2="-75.972" gradientUnits="userSpaceOnUse" x2="19.561" gradientTransform="matrix(.0008 -.8 -.8 .0008 .0017871 31.442)" y1="-75.972" x1="18.586">
      <stop id="stop200" style="stop-color:#ffffff" offset="0"/>
      <stop id="stop202" style="stop-color:#c8dae3" offset="1"/>
    </linearGradient>
    <linearGradient id="linearGradient216" y2="-32.114" gradientUnits="userSpaceOnUse" x2="28.73" gradientTransform="matrix(.000052893 -.8 -.8 .0008 .0024192 31.442)" y1="-32.114" x1="13.606">
      <stop id="stop218" style="stop-color:#ffffff" offset="0"/>
      <stop id="stop220" style="stop-color:#c8dae3" offset="1"/>
    </linearGradient>
    <linearGradient id="linearGradient234" y2="-75.635" gradientUnits="userSpaceOnUse" x2="37.862" gradientTransform="matrix(.00015763 -.8 -.8 .0008 .0024204 31.442)" y1="-75.635" x1="32.787">
      <stop id="stop236" style="stop-color:#ffffff" offset="0"/>
      <stop id="stop238" style="stop-color:#c8dae3" offset="1"/>
    </linearGradient>
    <linearGradient id="linearGradient252" y2="-66.274" gradientUnits="userSpaceOnUse" x2="37.434" gradientTransform="matrix(.00025 -.8 -.8 .0008 .0017833 31.442)" y1="-66.274" x1="34.234">
      <stop id="stop254" style="stop-color:#ffffff" offset="0"/>
      <stop id="stop256" style="stop-color:#c8dae3" offset="1"/>
    </linearGradient>
    <linearGradient id="linearGradient270" y2="-15.23" gradientUnits="userSpaceOnUse" x2="32.935" gradientTransform="matrix(.00011765 -.8 -.8 .0008 .0019191 31.442)" y1="-15.23" x1="26.135">
      <stop id="stop272" style="stop-color:#ffffff" offset="0"/>
      <stop id="stop274" style="stop-color:#c8dae3" offset="1"/>
    </linearGradient>
    <linearGradient id="linearGradient288" y2="-37.909" gradientUnits="userSpaceOnUse" x2="29.699" gradientTransform="matrix(.00029906 -.8 -.8 .0008 .0022477 31.442)" y1="-37.909" x1="27.024">
      <stop id="stop290" style="stop-color:#ffffff" offset="0"/>
      <stop id="stop292" style="stop-color:#c8dae3" offset="1"/>
    </linearGradient>
    <linearGradient id="linearGradient306" y2="-33.473" gradientUnits="userSpaceOnUse" x2="30.117" gradientTransform="matrix(.0008 -.8 -.8 .0008 .0022059 31.442)" y1="-33.473" x1="29.117">
      <stop id="stop308" style="stop-color:#ffffff" offset="0"/>
      <stop id="stop310" style="stop-color:#c8dae3" offset="1"/>
    </linearGradient>
    <linearGradient id="linearGradient324" y2="-24.35" gradientUnits="userSpaceOnUse" x2="30.276" gradientTransform="matrix(.0004 -.8 -.8 .0008 .0017557 31.442)" y1="-24.35" x1="28.276">
      <stop id="stop326" style="stop-color:#ffffff" offset="0"/>
      <stop id="stop328" style="stop-color:#c8dae3" offset="1"/>
    </linearGradient>
  </defs>
  <g id="g10" transform="matrix(1.25 0 0 -1.25 0 39.302)">
    <g id="g12">
      <path id="path14" style="fill-rule:evenodd;fill:#414428" d="m95.121 11.641c-0.078 0.027-0.172 0.066-0.281 0.121-0.16 0.078-0.317 0.145-0.481 0.199 0.293 0.082 0.856 0.266 1.684 0.559l-0.121-0.199c1.414 0.16 2.144 0.242 2.199 0.242 0.238 0 0.371-0.016 0.399-0.043 0.109-0.051 0.16-0.289 0.16-0.719-0.028-0.664 0.043-1.625 0.199-2.879-0.637 0.985-0.984 1.559-1.039 1.719-0.078 0.375-0.16 0.68-0.238 0.922-0.161 0.453-0.321 0.719-0.481 0.801-0.215 0.078-0.641-0.043-1.281-0.364-0.266-0.133-0.504-0.25-0.719-0.359zm0.039-3.438c-0.265-0.054-0.625-0.187-1.078-0.402-0.48-0.238-0.773-0.371-0.879-0.398-0.508-0.11-1.137-0.149-1.883-0.121-0.8 0.054-1.425 0.082-1.879 0.082-0.105-1.094-1.027-1.508-2.761-1.243l-0.039 0.641c-0.133-0.508-0.399-0.906-0.801-1.199-0.426-0.293-0.906-0.414-1.438-0.36-0.082-0.8-0.226-1.414-0.441-1.839-0.27-0.563-0.734-0.922-1.402-1.082-0.907-0.239-1.45 0.015-1.637 0.761-0.027 0.051-0.043 0.117-0.043 0.199-0.027 0.372-0.012 1.079 0.043 2.122l0.156 0.117 0.16 0.16 0.282 0.398c0.027-0.078 0.039-0.304 0.039-0.679 0-0.399 0.187-0.598 0.562-0.598 0.293 0 0.641 0.25 1.039 0.758 0.399 0.48 0.625 0.883 0.68 1.199 0.187-0.371 0.519-0.437 1-0.199 0.32 0.16 0.652 0.426 1 0.801 0.613-0.348 1.187-0.414 1.719-0.2 0.082 0.348 0.109 0.586 0.082 0.719 0.214 0.106 0.535 0.133 0.961 0.078 0.453-0.023 0.785 0 1 0.082v0.641c0.023 0.266 0.105 0.453 0.238 0.558 1.066-0.105 1.68-0.144 1.84-0.117h0.082c-0.028 0.024-0.039 0.051-0.039 0.078-0.028 0.161 0.078 0.403 0.316 0.719 0.297 0.375 0.469 0.617 0.52 0.723 0.027 0.027 0.054 0.066 0.082 0.117 0.347-0.133 0.652-0.25 0.918-0.359-0.024 0-0.039-0.012-0.039-0.039-0.028-0.028-0.051-0.055-0.079-0.082-0.187-0.239-0.308-0.493-0.363-0.758 0.668 0.187 1.11 0.238 1.32 0.16 0.297-0.133 0.551-0.613 0.762-1.438zm-15.316-4.64-0.121-0.082c-0.082-0.051-0.161-0.094-0.243-0.117l-0.878-0.2c-0.829-0.109-1.122 0.399-0.879 1.516-0.828-1.039-1.911-1.332-3.243-0.879-1.945 0.641-3.078 0.949-3.398 0.918l-0.043 0.363c-0.184-0.828-0.598-1.386-1.238-1.679-0.348 0.078-0.574 0.277-0.68 0.597-0.16-0.215-0.414-1.039-0.762-2.48-0.183-0.719-0.867-0.985-2.039-0.801-0.082 0-0.148 0.016-0.199 0.043l-0.519 0.281c-0.106 0.106-0.227 0.211-0.36 0.321 0.508-0.137 1.028-0.149 1.559-0.043 0.109 0.293 0.121 0.679 0.043 1.16 0.636 0.082 1.051 0.332 1.238 0.761 0.055 0.106 0.066 0.305 0.039 0.598-0.027 0.266-0.039 0.469-0.039 0.602 0.027-0.348 0.242-0.493 0.641-0.442 0.371 0.028 0.613 0.227 0.718 0.602 0.055 0.105 0.094 0.437 0.121 1 0.481-0.375 0.918-0.453 1.321-0.242 0.371 0.214 0.597 0.601 0.679 1.16 0.028-0.426 0.305-0.68 0.84-0.758 0.293-0.082 0.668-0.094 1.121-0.043 0.504 0.055 0.852 0.066 1.039 0.043-0.027-0.16-0.027-0.293 0-0.402 0.051-0.266 0.426-0.348 1.118-0.239l0.242 0.039c0.32 0.055 0.547 0.133 0.68 0.243 0.132 0.105 0.308 0.316 0.519 0.64-0.027-0.64 0.266-0.867 0.883-0.679l0.156 0.078 0.801 0.359c-0.078-0.559 0.094-0.867 0.519-0.918 0.375-0.055 0.801 0.078 1.282 0.399-0.215-0.719-0.442-1.215-0.68-1.481l-0.238-0.238zm-26.84 0.84v0.117h0.039c0.133-0.024 0.348-0.024 0.641 0h1.16c-0.055-0.156-0.11-0.293-0.16-0.399-0.028-0.054-0.067-0.105-0.122-0.16l-0.242 0.281c-0.238 0.239-0.679 0.293-1.316 0.161zm-17.602-0.481c-0.187-0.187-0.398-0.359-0.64-0.519-0.055-0.055-0.106-0.106-0.16-0.161-0.641-0.375-1.282-0.464-1.918-0.281-0.457-0.16-0.883-0.265-1.282-0.32-0.64-0.051-1.16-0.09-1.558-0.117-0.774-0.082-1.242-0.176-1.403-0.282-0.05-0.027-0.414-0.585-1.078-1.679-0.402-0.641-1.043-0.735-1.922-0.281 0.055 0.585 0.2 1.039 0.442 1.359l-0.199-0.121c-0.457-0.266-0.989-0.399-1.602-0.399l0.039 0.121 0.082 1.04c0.051 0.187 0.051 0.386 0 0.601 0 0.184-0.055 0.414-0.16 0.68l0.277-0.121h0.043l1.117-0.321c0.481-0.16 0.977-0.238 1.481-0.238 0 0.613 0.027 1.066 0.082 1.359v0.04l0.039-0.04c1.121-0.425 2.106-0.601 2.961-0.519 0.398 0.027 0.641 0.039 0.719 0.039 0.082 0 0.187-0.055 0.32-0.16 0.106-0.082 0.215-0.121 0.32-0.121 0.348-0.024 0.575 0.082 0.68 0.32 0.16 0.32 0.305 0.508 0.441 0.563 0.051 0.023 0.465 0.05 1.239 0.078 0.535 0.027 0.773 0.265 0.718 0.722l0.082-0.441c0.399 0.508 0.852 0.891 1.36 1.16 0.535 0.32 0.933 0.387 1.199 0.199l0.883 1.121-0.121-1.601c-0.188-1.254-0.602-2.106-1.242-2.559-0.106-0.109-0.332-0.187-0.68-0.242-0.293 0.586-0.332 1.254-0.117 2-0.028-0.082-0.055-0.16-0.082-0.238-0.106-0.242-0.227-0.453-0.36-0.641zm-16.48 0.442-0.36 0.078c-0.027-0.719-0.32-1.16-0.878-1.321-0.563-0.16-1.067 0.055-1.524 0.641-0.293-1.281-0.89-1.785-1.797-1.52-0.883 0.266-1.226 1.055-1.043 2.36-0.398-0.215-0.84-0.281-1.316-0.199-0.535 0.078-0.977 0.332-1.32 0.757-0.137-0.238-0.442-0.359-0.922-0.359l-2.16 0.402c-0.321 0.079-0.664 0.184-1.04 0.317l0.36 0.242 0.359 0.359c0.028 0.028 0.188 0.028 0.481 0 0.082 0 0.375-0.027 0.879-0.078 0.32-0.054 0.613-0.027 0.882 0.078 0.079 0.028 0.145 0.11 0.2 0.243 0.027 0.132 0.093 0.21 0.199 0.238 0.16 0 0.426-0.051 0.801-0.16h0.121c0.265 0 0.625 0.109 1.078 0.32 0.105-0.188 0.293-0.398 0.558-0.641 0.59-0.586 1.161-1.027 1.723-1.32l0.277 0.602c0.137 0.05 0.254 0.039 0.364-0.039l0.597 0.078c-0.05-0.453-0.105-0.774-0.16-0.961 0.16 0.082 0.266 0.269 0.321 0.562 0.054 0.211 0.093 0.371 0.121 0.481 0.105-0.11 0.215-0.176 0.32-0.203 0.266-0.106 0.559-0.157 0.879-0.157 0.16-0.082 0.348-0.175 0.558-0.281 0.856-0.32 1.243-0.199 1.161 0.359l0.281-0.878zm-16.602 2.597c-0.105-0.054-0.183-0.148-0.238-0.281-0.078-0.133-0.16-0.387-0.238-0.758-0.137-0.613-0.203-1.801-0.203-3.558-0.051 0.238-0.079 0.585-0.079 1.039 0 0.105-0.066 0.746-0.199 1.918-0.027 0.214 0 1.093 0.078 2.64 0.055 0.801 0.454 1.055 1.2 0.758 0.269-0.078 0.695-0.277 1.281-0.598l0.762-0.558c0.343-0.27 0.57-0.375 0.679-0.321l1.68-0.64c-0.375-0.348-1.082-0.348-2.121 0-0.828 0.265-1.442 0.426-1.84 0.48-0.027 0-0.055 0.012-0.078 0.039-0.16 0.028-0.281 0.028-0.363 0-0.133-0.027-0.239-0.078-0.321-0.16zm52.403-0.961c0.187 0.188 0.254 0.481 0.199 0.883 0.055-0.027 0.094-0.066 0.121-0.121 0.023-0.242 0.012-0.398-0.043-0.48-0.051-0.133-0.145-0.227-0.277-0.282z" inkscape:connector-curvature="0"/>
      <path id="path16" style="fill-rule:evenodd;fill:#4e512f" d="m95.402 11.481c-0.082 0.054-0.175 0.109-0.281 0.16 0.215 0.109 0.453 0.226 0.719 0.359 0.64 0.321 1.07 0.442 1.281 0.364 0.16-0.082 0.32-0.348 0.481-0.801 0.082-0.242 0.16-0.547 0.242-0.922 0.051-0.16 0.398-0.734 1.039-1.719-0.16 1.254-0.227 2.215-0.199 2.879 0 0.43-0.055 0.668-0.161 0.719-0.027 0.027-0.16 0.043-0.402 0.043-0.051 0-0.785-0.082-2.199-0.242l0.121 0.199c-0.828-0.289-1.387-0.477-1.68-0.559-0.347 0.133-0.629 0.242-0.84 0.321 0.133 0.132 0.278 0.292 0.438 0.48 0.453 0.48 0.801 0.785 1.043 0.918 0.211 0.109 0.519 0.16 0.918 0.16 0.215 0 0.613 0.043 1.199 0.121 0.535 0.028 0.895 0.016 1.082-0.039 0.133-0.082 0.277-0.402 0.438-0.961 0.347-1.226 0.562-2.426 0.64-3.597 0.242-2.188 0.028-3.684-0.64-4.485 0.027 0.297-0.012 0.656-0.118 1.082-0.132 0.559-0.214 0.918-0.242 1.082l-0.277 2.321c-0.215 1.515-0.453 2.343-0.723 2.476-0.105 0.082-0.625-0.012-1.558-0.277-0.106-0.028-0.215-0.055-0.321-0.082zm-1.32-1.239h0.082c0.371-0.027 0.691-0.039 0.957-0.039 0.27-0.296 0.441-0.55 0.52-0.761 0.082-0.321 0-0.719-0.239-1.2l-0.242-0.039c-0.211 0.825-0.465 1.305-0.758 1.438-0.214 0.082-0.652 0.027-1.32-0.16 0.055 0.269 0.172 0.519 0.359 0.761h0.641zm-41.078-5.722v-0.117c-0.109 0-0.203-0.016-0.281-0.039-0.508-0.082-0.973-0.36-1.403-0.844l-0.039-0.039c-0.187 0.133-0.304 0.32-0.359 0.562-0.078-1.469-0.68-2.414-1.801-2.84-1.277-0.453-1.891-0.082-1.84 1.118-0.265-0.692-0.797-1.188-1.597-1.481-0.801-0.293-1.563-0.277-2.282 0.039-0.105 0.641 0.039 1.375 0.442 2.203 0.504 0.879 0.84 1.559 1 2.039-1.336-0.961-2.188-1.535-2.563-1.718-1.144-0.481-1.812-0.149-2 1 0.028-0.321 0-0.629-0.078-0.922l-0.242-0.438c-0.023-0.027-0.051-0.066-0.078-0.121l-0.16-0.16c-0.161-0.133-0.332-0.266-0.52-0.398-0.105-0.055-0.199-0.11-0.281-0.161-0.586-0.269-1.16-0.347-1.719-0.242-0.133 0.028-0.254 0.067-0.359 0.121-0.403 0.188-0.696 0.426-0.883 0.719 0.348 0.055 0.574 0.133 0.684 0.242 0.636 0.453 1.05 1.305 1.238 2.559l0.121 1.601-0.883-1.121c-0.266 0.188-0.664 0.121-1.199-0.199-0.504-0.269-0.961-0.652-1.36-1.16l-0.078 0.441c0.051-0.457-0.187-0.695-0.722-0.722-0.774-0.028-1.184-0.051-1.239-0.078-0.132-0.055-0.281-0.243-0.441-0.563-0.105-0.238-0.332-0.348-0.68-0.32-0.105 0-0.214 0.043-0.32 0.121-0.133 0.105-0.238 0.16-0.32 0.16-0.078 0-0.321-0.012-0.719-0.039-0.852-0.082-1.84 0.094-2.961 0.519 0.402-0.082 0.789-0.121 1.16-0.121 0.055 0.348 0.082 0.602 0.082 0.762 0.051-0.269 0.227-0.508 0.52-0.719 0.371-0.297 0.734-0.402 1.078-0.32 0.348 0.105 0.535 0.344 0.562 0.719 0 0.48 0.024 0.84 0.078 1.078 0.243-0.238 0.575-0.438 1-0.598 0.454-0.16 0.852-0.226 1.2-0.199 0.48 0.023 0.816 0.184 1 0.477 0.109 0.214 0.199 0.628 0.281 1.242 0.187 0 0.586-0.028 1.199-0.082l0.039 0.043c0.188 0.133 0.281 0.304 0.281 0.519-0.027 0.239-0.027 0.426 0 0.559l0.04 0.039 0.043 0.121 0.039 0.039 0.039 0.043c0.16 0.238 0.347 0.387 0.558 0.438l-0.277 0.281c-0.297 0.344-0.481 0.613-0.563 0.801l0.922 0.039c0.321 0.05 0.52 0.171 0.598 0.359 0.109 0.215 0.148 0.625 0.121 1.238l0.801-0.281c0.027-0.398 0.027-1 0-1.797 0.078 0 0.226-0.027 0.437-0.082 0.188-0.051 0.336-0.066 0.442-0.039-0.668-0.266-0.985-0.746-0.961-1.441 0.402-0.184 0.855-0.211 1.359-0.078-0.183-0.348-0.305-0.696-0.359-1.043-0.106-0.504-0.024-0.825 0.242-0.957 0.266-0.161 0.492-0.161 0.68 0 0.16 0.105 0.293 0.304 0.398 0.597 0.027-0.426 0.32-0.691 0.883-0.801 0.211-0.023 0.719-0.039 1.519-0.039 0.079 0.403 0.094 0.696 0.039 0.879 0.321-0.156 0.665-0.199 1.04-0.117l0.039 0.238 0.043-0.519c0.504-0.211 0.933-0.09 1.277 0.359 0.027-0.16 0-0.476-0.078-0.957 0-0.402 0.094-0.668 0.277-0.801 0.402-0.265 0.735-0.226 1 0.121 0.242 0.477 0.402 0.813 0.481 1 0.214-0.32 0.562-0.589 1.043-0.8 0.531-0.243 0.945-0.243 1.238 0 0.133 0.105 0.254 0.332 0.359 0.679 0.133 0.481 0.199 0.735 0.199 0.758 0.668-0.293 1.309-0.383 1.922-0.277 0.719 0.133 1.028 0.558 0.918 1.277 0.453-0.211 0.868-0.265 1.242-0.16 0.133 0.668 0.172 1.523 0.118 2.563 0.082-0.161 0.23-0.282 0.441-0.36 0.266-0.16 0.574-0.242 0.922-0.242 0.371 0 0.637 0.121 0.797 0.359 0.242 0.321 0.242 1.028 0 2.121 0.16-0.16 0.375-0.16 0.64 0 0.27 0.161 0.454 0.426 0.563 0.801 0.133 0.508 0.133 1.078 0 1.719-0.082 0.293-0.227 0.707-0.441 1.238 0.027 0.028 0.05 0.043 0.078 0.043 0.054 0.028 0.093 0.188 0.121 0.481 0.027 0.132 0.054 0.254 0.082 0.359 0.906-1.066 1.398-2.348 1.48-3.84v-0.16c0.293 0.106 0.575 0.148 0.84 0.117-0.027-0.183-0.082-0.449-0.16-0.797-0.481-0.242-0.773-0.519-0.883-0.839-0.078-0.243-0.117-0.454-0.117-0.641-0.027-0.109-0.215-0.176-0.563-0.199-0.343 0.078-0.718 0.023-1.117-0.16l-0.558-0.52c-0.16-0.27-0.215-0.574-0.16-0.922-0.11-0.16-0.293-0.332-0.563-0.519-0.078-0.106-0.094-0.282-0.039-0.52v-0.039c-0.027 0.051-0.066 0.094-0.121 0.117 0.055-0.398-0.012-0.691-0.199-0.879-0.106-0.027-0.227-0.039-0.36-0.039-0.531-0.027-0.824-0.054-0.879-0.082-0.64-0.16-0.906-0.465-0.8-0.918 0.05-0.238 0.16-0.387 0.32-0.441zm-30.32-3.117-0.082 0.039c-0.079 0.054-0.145 0.093-0.2 0.121-0.082 0.051-0.148 0.09-0.199 0.117-0.027 0.027-0.055 0.039-0.082 0.039l-0.078 0.082c-0.055 0.055-0.105 0.094-0.16 0.121-0.082 0.078-0.149 0.172-0.199 0.281-0.27 0.426-0.243 0.852 0.078 1.278 0.347 0 0.625 0.109 0.84 0.32 0.132-0.641 0.668-0.961 1.601-0.961v0.043c0.051-0.215 0.051-0.414 0-0.601l-0.082-1.04-0.039-0.121c-0.293 0-0.652 0.055-1.078 0.161-0.137 0.054-0.242 0.093-0.32 0.121zm-3.723 2.918-0.039 0.043-0.281 0.878c0.082-0.558-0.305-0.679-1.161-0.359-0.21 0.106-0.398 0.199-0.558 0.281 0.426 0 0.906 0.09 1.441 0.278 0.293 0.109 0.52 0.215 0.68 0.32 0.027-0.078 0.078-0.16 0.16-0.238 0.184-0.215 0.547-0.375 1.078-0.481-0.027-0.242 0.028-0.492 0.16-0.761-0.078 0-0.16-0.012-0.238-0.04-0.402 0-0.762 0.028-1.082 0.079h-0.16zm-15.879 2.761c0.398-0.054 1.012-0.215 1.84-0.48 1.039-0.348 1.746-0.348 2.121 0l-1.68 0.64c-0.109-0.054-0.336 0.051-0.679 0.321l-0.762 0.558c-0.586 0.321-1.012 0.52-1.281 0.602-0.746 0.293-1.145 0.039-1.2-0.762-0.078-1.547-0.105-2.426-0.078-2.64 0.133-1.172 0.199-1.813 0.199-1.918 0-0.454 0.028-0.801 0.079-1.039 0 1.757 0.066 2.945 0.203 3.558 0.078 0.375 0.16 0.625 0.238 0.758 0.055 0.137 0.133 0.227 0.238 0.281-0.023-0.183-0.066-0.547-0.117-1.078-0.082-0.535-0.121-1.348-0.121-2.441-0.055-1.039-0.039-1.84 0.039-2.399 0.055-0.535 0.082-0.84 0.082-0.922-1.199 2.614-1.883 4.586-2.043 5.922-0.238 1.813-0.211 3.438 0.082 4.879 0.453 0 1.199-0.148 2.238-0.441 0.321-0.051 0.536-0.117 0.641-0.199 0.106-0.079 0.281-0.239 0.52-0.481 0.375-0.426 0.722-0.773 1.043-1.039 0.32-0.266 0.613-0.441 0.878-0.52l0.918-1.242c0.055 0.11 0.11 0.242 0.161 0.403 0.453-0.536 0.976-0.868 1.562-1 0.613-0.133 1.024 0.05 1.238 0.558l0.082 0.281c0.024-0.027 0.254-0.175 0.68-0.441l0.52-0.359c-0.375 0.105-0.641 0.16-0.801 0.16-0.106-0.028-0.172-0.106-0.199-0.238-0.055-0.137-0.121-0.215-0.2-0.243-0.269-0.105-0.562-0.132-0.882-0.082-0.504 0.055-0.797 0.082-0.879 0.082-0.293 0.028-0.453 0.028-0.481 0l-0.359-0.359-0.36-0.242c-0.242 0.082-0.468 0.16-0.679 0.242l-2.082 0.918c-0.266 0.137-0.504 0.269-0.719 0.402zm86.52 7.961c-0.133 0.051-0.254 0.106-0.36 0.16-0.105 0.211-0.187 0.383-0.238 0.52-0.082 0.184-0.109 0.293-0.082 0.32 0.027 0.051 0.16 0.106 0.398 0.16-0.664 0.317-1.664 0.399-3 0.239-0.453-0.055-0.851-0.094-1.199-0.121-0.453 0.054-0.812 0.109-1.078 0.16-0.242 0.027-0.453 0.039-0.641 0.039 0.051 0.027 0.133 0.054 0.239 0.082 0.187 0.051 0.496 0.16 0.921 0.32 0.372 0.133 0.68 0.199 0.918 0.199l-0.441-0.558c1.84 0.32 3.242 0.226 4.203-0.281 0.211-0.106 0.332-0.188 0.36-0.239 0.023-0.082 0.023-0.254 0-0.523v-0.477zm-6.282 5.399c-0.293-0.856-0.824-1.696-1.597-2.52-0.161-0.187-0.321-0.359-0.481-0.519 0 0.183-0.039 0.371-0.121 0.558l2.199 2.559v-0.078zm-2.476 0.84c-0.055 0.132-0.121 0.265-0.203 0.398 0.082 0.348 0.121 0.574 0.121 0.684 0.054 0.691-0.082 1.144-0.399 1.359-0.297 0.16-0.668 0.25-1.121 0.277-0.082 0.16-0.148 0.297-0.199 0.403-0.055 0.105-0.105 0.199-0.16 0.277 0.133 0.027 0.281 0.055 0.441 0.082 0.692 0.105 1.211 0 1.559-0.32 0.32-0.293 0.426-0.84 0.32-1.641-0.109-0.641-0.226-1.144-0.359-1.519zm-20.641-2.961c0.024-0.161 0.067-0.254 0.117-0.278 0.375-0.269 0.684-0.16 0.922 0.321 0.133 0.265 0.227 0.546 0.281 0.839 0.211 0 0.415 0.106 0.598 0.317 0.106 0.137 0.149 0.429 0.121 0.883-0.027 0.504-0.039 0.824-0.039 0.961l1.359 0.597 0.118-0.398c0.054 0.051 0.109 0.105 0.16 0.16 0.027 0.023 0.082 0.066 0.164 0.117l0.117 0.082v-2.242c-0.027-0.051-0.039-0.094-0.039-0.117 0-0.133-0.016-0.336-0.039-0.602v-0.199c-0.055-0.215-0.176-0.52-0.363-0.922-0.078-0.183-0.145-0.371-0.2-0.558-0.078-0.106-0.187-0.215-0.32-0.321-0.449-0.398-0.797-0.293-1.039 0.321-0.078-0.133-0.172-0.442-0.281-0.918-0.078-0.375-0.227-0.641-0.438-0.801-0.16-0.133-0.468-0.188-0.922-0.16-0.425 0-0.73 0.066-0.918 0.199-0.32 0.238-0.507 0.746-0.558 1.519 0 0.481 0.066 1.121 0.199 1.922 0.426-0.828 0.758-1.066 1-0.722zm15.078-4.758c0.028 0.133 0.055 0.25 0.082 0.359 0.188 0.481 0.465 0.774 0.84 0.879 0.051 0.027 0.121 0.039 0.199 0.039-0.132-0.183-0.214-0.426-0.238-0.719-0.137-0.16-0.43-0.347-0.883-0.558zm-1.758-7.84c-0.453-0.055-0.828-0.043-1.121 0.039-0.535 0.082-0.812 0.332-0.84 0.758-0.082-0.559-0.308-0.946-0.679-1.156-0.403-0.215-0.84-0.137-1.321 0.238-0.027-0.559-0.066-0.895-0.121-1-0.105-0.375-0.347-0.574-0.718-0.602-0.399-0.051-0.614 0.094-0.641 0.442 0-0.133 0.016-0.332 0.043-0.602 0.023-0.293 0.012-0.492-0.043-0.598-0.184-0.425-0.598-0.679-1.238-0.761-0.028 0.054-0.039 0.109-0.039 0.16-0.16 0.746-0.243 1.199-0.243 1.359-0.027 0.43 0.055 0.801 0.243 1.121 0.238 0.375 0.425 0.707 0.558 1 0.106 0.188 0.188 0.414 0.239 0.68 0.082-0.133 0.203-0.238 0.359-0.32 0.32-0.184 0.641-0.211 0.961-0.078 0.348 0.16 0.535 0.425 0.558 0.8 0.055 0.559 0.11 0.907 0.161 1.039l0.48-0.281c0.508-0.32 1-0.414 1.481-0.281v0.84c0.027 0.375 0.16 0.613 0.402 0.722 0.16 0.079 0.387 0.067 0.68-0.043 0.027-0.371 0.093-0.679 0.199-0.917 0.242-0.614 0.707-1.028 1.398-1.243-0.398-0.023-0.679-0.132-0.84-0.32l-0.078-0.316 0.078 0.039c-0.078-0.321-0.054-0.559 0.082-0.719zm8.039-0.359c0.266-0.11 0.52 0.011 0.758 0.355 0.188 0.297 0.336 0.656 0.442 1.082l0.082 0.281 0.359-0.039c0.746-0.054 1.32-0.027 1.719 0.078 0.055 0.348 0.082 0.856 0.082 1.52 0.023-0.481 0.359-0.746 1-0.801 0.531-0.051 1.066 0.016 1.598 0.203 0.109 0.399 0.121 0.707 0.039 0.918 0.32-0.265 0.734-0.375 1.242-0.32 0.558 0.055 0.879 0.308 0.961 0.762 0.051 0.265-0.215 0.664-0.801 1.199 0.348-0.133 0.691-0.16 1.039-0.082 0.133 0.375 0.133 0.683 0 0.922 0.559 0.027 1.242-0.149 2.039-0.52 0.188-0.082 0.359-0.148 0.52-0.203-0.024-0.051-0.051-0.09-0.079-0.117-0.054-0.106-0.226-0.348-0.519-0.719-0.242-0.32-0.348-0.562-0.32-0.719 0-0.027 0.015-0.054 0.039-0.082h-0.078c-0.161-0.027-0.774 0.012-1.84 0.121-0.133-0.109-0.215-0.296-0.242-0.562v-0.641c-0.211-0.078-0.547-0.105-1-0.078-0.426 0.051-0.747 0.027-0.957-0.082 0.023-0.133 0-0.371-0.083-0.719-0.535-0.214-1.105-0.148-1.718 0.2-0.348-0.372-0.68-0.641-1-0.801-0.481-0.238-0.817-0.172-1 0.199-0.055-0.316-0.282-0.719-0.68-1.199-0.402-0.504-0.75-0.758-1.043-0.758-0.371 0-0.559 0.199-0.559 0.602zm12 5h0.04c-0.028-0.004-0.055-0.016-0.079-0.043 0 0.027 0.012 0.043 0.039 0.043zm-17.64-5.204-0.238-0.039c-0.696-0.105-1.067-0.027-1.122 0.243 0.559 0.078 1 0.304 1.321 0.679-0.16-0.375-0.149-0.668 0.039-0.883zm5.16 0.321 0.082 0.242 0.078-0.082-0.16-0.16zm-38.922 4.883 0.043 0.039v-0.039c-0.187-1.043-0.293-1.59-0.32-1.645-0.16-0.613-0.426-1.078-0.801-1.398-0.668-0.614-1.133-0.692-1.398-0.239-0.188 0.371 0 0.867 0.558 1.481 0.535 0.613 1 0.879 1.399 0.801l0.519 1zm21.524 11.199c-0.161-0.11-0.309-0.188-0.442-0.242-0.16-0.051-0.375-0.118-0.64-0.2 0.402-0.054 0.8-0.054 1.199 0l-0.117 0.442zm-2.563-5.199-0.277 0.277c-0.348 0.082-0.453-0.145-0.321-0.68 0.079-0.48 0.278-0.347 0.598 0.403zm-39.437-9.723h0.16c0.105-0.051 0.172-0.078 0.199-0.078 0-0.028-0.016-0.11-0.039-0.242 0-0.188-0.043-0.348-0.121-0.481-0.215-0.266-0.668-0.398-1.36-0.398-0.507 0-0.855 0.144-1.043 0.437-0.132 0.215-0.226 0.602-0.277 1.16-0.16 0.082-0.281 0.082-0.359 0-0.215 0.16-0.524 0.321-0.922 0.481-0.106 0.054-0.215 0.094-0.32 0.121-0.055 0.133-0.079 0.215-0.079 0.238 0.106 0.082 0.254 0.11 0.438 0.082 0.109 0 0.266-0.012 0.48-0.039-0.05 0.266-0.453 0.664-1.199 1.199-0.453 0.426-0.879 0.68-1.281 0.758 0.773-0.133 1.574-0.449 2.402-0.957 0.106-0.082 0.199-0.148 0.278-0.203-0.184-0.156-0.25-0.398-0.2-0.719 0.055-0.371 0.36-0.625 0.922-0.758 0.266-0.054 0.492-0.066 0.68-0.039 0.266-0.242 0.586-0.402 0.961-0.484 0.105-0.023 0.332-0.051 0.68-0.078zm26.078 1.281v-1.121c-0.055-0.531-0.266-0.785-0.641-0.758-0.211 0.028-0.371 0.278-0.48 0.758-0.106 0.508-0.184 0.816-0.239 0.922l1.36 0.199zm-4.121-1.558c-0.051 0.984 0.254 1.839 0.921 2.558l0.801-0.082c0.051-0.664-0.043-1.32-0.281-1.961-0.348-0.824-0.812-1.105-1.398-0.84v0.16l-0.043 0.165zm-4.637 3.796c-0.055 0.293 0.039 0.559 0.277 0.801 0.215 0.215 0.481 0.348 0.801 0.403l0.801-0.602c-0.321-0.32-0.602-0.535-0.84-0.641-0.32-0.132-0.668-0.121-1.039 0.039zm13.918-0.957c0.055-0.402-0.039-0.695-0.281-0.882-0.266-0.215-0.625-0.188-1.079 0.082-0.453 0.238-0.722 0.492-0.8 0.757l1.918 1c0.054-0.183 0.136-0.503 0.242-0.957zm-36.762 4.079 0.481-0.282c0.297-0.183 0.629-0.492 1-0.918 0.054-0.082 0.121-0.175 0.203-0.281-0.137 0.106-0.254 0.215-0.364 0.32-0.292 0.243-0.546 0.453-0.757 0.641-0.161 0.133-0.293 0.254-0.403 0.359-0.16 0.133-0.293 0.243-0.398 0.321l0.238-0.16zm-0.437-7.762c-0.028-0.106-0.067-0.266-0.121-0.477-0.055-0.293-0.161-0.48-0.321-0.562 0.055 0.187 0.106 0.508 0.16 0.961l-0.597-0.078c-0.11 0.078-0.227 0.089-0.364 0.039l-0.277-0.602c-0.562 0.293-1.133 0.734-1.723 1.32l0.161 0.243c0.214-0.215 0.375-0.309 0.48-0.282 0.027 0 0.082 0.012 0.16 0.039 0.508-0.347 0.989-0.507 1.442-0.48 0.078 0.32 0.187 0.641 0.32 0.961 0.051-0.11 0.117-0.227 0.199-0.36 0.16-0.32 0.32-0.562 0.481-0.722zm11.32-1.278c-0.055-0.293-0.082-0.746-0.082-1.359-0.504 0-1 0.078-1.481 0.238 0.055 0.133 0.122 0.668 0.204 1.602 0.371-0.188 0.824-0.348 1.359-0.481zm-5.883 5.161c-0.133-0.082-0.293-0.161-0.476-0.243-0.188-0.078-0.348-0.16-0.481-0.238l-0.043 0.121c-0.613 0-1.012-0.043-1.199-0.121 0.027 0.082 0.043 0.172 0.043 0.281 0.051 0 0.184-0.027 0.398-0.082 0.16-0.027 0.282-0.011 0.36 0.043-0.078 0.133-0.52 0.746-1.321 1.84-0.187 0.238-0.347 0.465-0.48 0.68 0.055-0.027 0.094-0.055 0.121-0.082 0.238-0.266 0.547-0.692 0.922-1.281 0.133-0.133 0.332-0.305 0.598-0.52l0.48 0.039 1.441 0.121c-0.054-0.211-0.175-0.398-0.363-0.558z" inkscape:connector-curvature="0"/>
      <path id="path18" style="fill-rule:evenodd;fill:#585d3b" d="m83.48 7.883c0.27 0.211 0.536 0.453 0.801 0.719 0.11 0.215 0.176 0.398 0.199 0.558 0.641 0.082 1.094 0.161 1.364 0.243 0.051 0.531-0.215 0.89-0.801 1.078-0.133 0.027-0.266 0.039-0.402 0.039 0.375 0.109 0.761 0.148 1.16 0.121 0.109 0 0.441-0.039 1-0.121 0.426-0.051 0.761-0.051 1 0 0.242 0.054 0.601 0.23 1.082 0.523 0.453 0.239 0.84 0.371 1.16 0.399h0.039c0.133-0.239 0.133-0.547 0-0.922-0.348-0.078-0.691-0.051-1.039 0.082 0.586-0.531 0.852-0.934 0.801-1.199-0.082-0.454-0.403-0.707-0.961-0.762-0.508-0.051-0.922 0.055-1.242 0.32 0.082-0.211 0.07-0.519-0.039-0.918-0.532-0.187-1.067-0.254-1.598-0.199-0.641 0.051-0.977 0.32-1 0.797 0-0.664-0.027-1.172-0.082-1.52-0.399-0.105-0.973-0.132-1.719-0.078l0.199 0.321c0.078 0.183 0.106 0.359 0.078 0.519zm-1.918-1.082h0.04c0.453-0.105 0.839-0.105 1.16 0-0.106-0.426-0.254-0.785-0.442-1.082-0.238-0.344-0.492-0.465-0.758-0.355 0 0.371-0.015 0.597-0.039 0.679l-0.281-0.402-0.082 0.082-0.078-0.242-0.16-0.117 0.039 0.437-0.199-0.519c-0.481-0.321-0.907-0.454-1.282-0.399-0.425 0.051-0.597 0.359-0.519 0.918l-0.801-0.359 0.043 0.281-0.199-0.359c-0.617-0.188-0.91 0.039-0.883 0.679-0.211-0.32-0.387-0.535-0.519-0.64-0.133-0.11-0.36-0.188-0.68-0.243-0.188 0.215-0.199 0.508-0.039 0.883-0.321-0.375-0.762-0.601-1.321-0.679-0.027 0.105-0.027 0.238 0 0.398-0.187 0.027-0.535 0.012-1.039-0.043-0.136 0.16-0.16 0.402-0.082 0.723l-0.082-0.039 0.082 0.316c0.161 0.188 0.442 0.293 0.84 0.32 0.055 0 0.121-0.011 0.199-0.039 0.454-0.082 0.762-0.105 0.922-0.082 0.106 0.028 0.239 0.082 0.399 0.16 0-0.05 0.015-0.117 0.039-0.199 0.187-0.347 0.469-0.492 0.84-0.441 0.347 0.054 0.59 0.226 0.722 0.523h0.039c0.082-0.617 0.641-0.844 1.68-0.683 0.348 0.054 0.641 0.121 0.883 0.199 0.531 0.004 1.051 0.113 1.558 0.324zm-57.199-3.359-0.043 0.078v-0.078l-0.277 0.121c0.105-0.27 0.16-0.496 0.16-0.684v-0.039c-0.933 0-1.469 0.32-1.601 0.961-0.215-0.215-0.493-0.32-0.84-0.32v0.019c0.043 0.032 0.082 0.067 0.121 0.102 0.051 0.051 0.133 0.117 0.238 0.199l0.082 0.039c0 0.027 0.012 0.039 0.039 0.039 0.028 0.028 0.055 0.055 0.078 0.082l0.082 0.082c0.106 0.078 0.215 0.145 0.321 0.199-0.266 0.051-0.629 0.079-1.082 0.079l-0.598-0.039h-0.602c-0.132 0.265-0.187 0.519-0.16 0.761-0.531 0.106-0.894 0.266-1.078 0.477-0.082 0.082-0.133 0.16-0.16 0.242 0.371 0.32 0.348 0.707-0.082 1.16-0.027 0.055-0.066 0.094-0.117 0.121 0.078 0.078 0.199 0.078 0.359 0 0.051-0.562 0.145-0.949 0.277-1.16 0.188-0.293 0.536-0.441 1.043-0.441 0.692 0 1.145 0.132 1.36 0.398 0.238-0.051 0.492-0.023 0.758 0.082 0.269 0.133 0.496 0.348 0.679 0.641-0.078-0.16-0.078-0.453 0-0.883 0.27-0.16 0.59-0.211 0.961-0.16l0.039 0.121 0.043-0.399c0.239-0.132 0.481-0.175 0.719-0.121 0.078 0.321 0.106 0.547 0.078 0.68 0.27-0.32 0.59-0.598 0.961-0.84 0.481-0.293 0.856-0.359 1.121-0.199 0.215 0.105 0.32 0.32 0.32 0.641 0 0.398 0.012 0.707 0.04 0.918 0.16-0.133 0.386-0.344 0.679-0.641 0.266-0.266 0.547-0.383 0.84-0.359 0.133 0.64 0.082 1.242-0.16 1.8 0.48-0.718 1.266-1.05 2.359-1 0.055 0.536 0.067 1.055 0.043 1.559 0.239 0.055 0.426 0.16 0.559 0.32 0.055-0.051 0.121-0.093 0.199-0.117 0.402-0.16 0.723-0.187 0.961-0.082 0.32 0.106 0.492 0.414 0.52 0.918 0 0.59 0.015 1 0.039 1.242 0.214-0.133 0.547-0.199 1-0.199 0.16 0.613-0.106 1.254-0.797 1.918 0.051 0.055 0.105 0.094 0.16 0.121 0.371 0.293 0.543 0.785 0.519 1.481 0.106 0.027 0.184 0.082 0.239 0.16 0.105 0.187 0.133 0.386 0.082 0.597-0.055 0.215-0.176 0.375-0.364 0.481 0.536-0.051 0.856 0.148 0.961 0.601 0.082 0.453-0.05 0.868-0.398 1.239 0.027 0.054 0.051 0.109 0.078 0.16 0.133 0.054 0.293 0.066 0.481 0.043 0.16-0.27 0.359-0.723 0.601-1.364l0.277-1.039c0.055 0.133 0.082 0.243 0.082 0.321 0.051 0.265 0.079 0.691 0.079 1.281 0 0.559 0.015 0.984 0.043 1.277 0.238-0.238 0.425-0.824 0.558-1.757 0-0.028 0.012-0.055 0.039-0.083 0.028 0.055 0.067 0.106 0.121 0.161 0.028-0.293 0.078-0.575 0.16-0.84 0.028-0.055 0.051-0.121 0.079-0.199 0.054-0.161 0.109-0.321 0.16-0.481 0.137-0.293 0.32-0.574 0.562-0.84 0.051 0.184 0.024 0.426-0.082 0.719-0.16 0.453-0.238 0.691-0.238 0.719-0.082 0.453-0.105 1.027-0.082 1.722 0.055 0.774 0.082 1.344 0.082 1.719 0.051 1.813 0.519 3.453 1.398 4.918-0.48-1.414-0.718-3.078-0.718-5-0.028-0.426 0-0.933 0.078-1.519v-0.161c-0.024-0.371 0.027-0.652 0.16-0.839 0.027-0.051 0.043-0.106 0.043-0.161 0.078-0.343 0.184-0.773 0.316-1.277 0 0.399 0.028 0.785 0.082 1.16 0.16 0 0.375 0.012 0.641 0.039 0.133 0.028 0.305 0.051 0.519 0.078-0.105-0.293-0.132-0.57-0.082-0.839 0.11-0.028 0.243-0.051 0.403-0.079-0.028-0.132-0.039-0.281-0.039-0.441 0.051-0.215 0.144-0.441 0.277-0.68-0.211-0.32-0.359-0.629-0.437-0.918 0.132-0.054 0.543-0.109 1.238-0.16l0.039-0.043c0-0.105-0.012-0.398-0.039-0.879-0.027-0.32 0.055-0.562 0.238-0.718l-0.519-1c-0.399 0.078-0.864-0.188-1.399-0.801-0.558-0.613-0.746-1.11-0.558-1.481 0.265-0.453 0.73-0.375 1.398 0.239 0.375 0.32 0.641 0.789 0.801 1.402 0.027 0.051 0.133 0.598 0.32 1.641l0.039-0.039c0.508-0.399 1.028-0.25 1.559 0.441 0.027-0.879 0.215-1.375 0.562-1.48 0.371-0.133 0.746 0.238 1.117 1.121 0.43-0.883 1.188-1.254 2.282-1.121l0.121 1.398c0.344-0.586 0.824-0.906 1.437-0.957 0.11 0.211 0.16 0.465 0.16 0.758 0.028 0.48 0.043 0.75 0.043 0.801 0.372-0.321 0.77-0.575 1.2-0.762 0.586-0.238 1.039-0.266 1.359-0.078 0.426 0.265 0.531 0.734 0.32 1.398-0.187 0.563-0.48 0.949-0.882 1.16 0.214-0.105 0.8-0.25 1.761-0.437 0.133 0.64 0.067 1.156-0.199 1.558-0.187 0.215-0.469 0.414-0.84 0.598 0.051 0.082 0.106 0.148 0.16 0.203 0.133 0 0.278-0.015 0.438-0.043 0.508 0 0.851 0.11 1.039 0.32 0.109 0.133 0.176 0.254 0.203 0.364 0.211-0.215 0.344-0.336 0.398-0.364 0.559-0.292 1.149-0.386 1.762-0.281h0.36c0.21-0.531 0.359-0.945 0.437-1.238 0.137-0.641 0.137-1.215 0-1.719-0.105-0.375-0.293-0.64-0.559-0.801-0.265-0.16-0.48-0.16-0.64 0 0.242-1.093 0.242-1.8 0-2.121-0.16-0.238-0.426-0.359-0.801-0.359-0.348 0-0.652 0.082-0.918 0.242-0.211 0.078-0.359 0.199-0.437 0.36 0.05-1.04 0.011-1.895-0.122-2.559-0.374-0.109-0.785-0.055-1.238 0.16 0.106-0.719-0.203-1.148-0.922-1.281-0.613-0.106-1.254-0.016-1.918 0.281 0-0.027-0.066-0.281-0.203-0.762-0.105-0.347-0.226-0.574-0.359-0.679-0.293-0.239-0.707-0.239-1.238 0-0.481 0.215-0.829 0.48-1.039 0.8-0.083-0.187-0.243-0.519-0.485-1-0.265-0.347-0.598-0.386-1-0.121-0.183 0.133-0.277 0.399-0.277 0.801 0.078 0.481 0.105 0.801 0.078 0.961-0.348-0.453-0.773-0.574-1.277-0.363l-0.043 0.523 0.043 0.16v-0.16c0.586-0.269 1.05 0.012 1.398 0.84 0.238 0.637 0.332 1.293 0.281 1.957l-0.801 0.082c-0.667-0.719-0.972-1.574-0.921-2.558v-0.321l-0.039-0.242c-0.375-0.078-0.719-0.039-1.04 0.121 0.051-0.187 0.04-0.48-0.039-0.879-0.8 0-1.308 0.012-1.519 0.039-0.563 0.106-0.856 0.371-0.883 0.801-0.105-0.293-0.238-0.496-0.398-0.601-0.188-0.161-0.414-0.161-0.68 0-0.266 0.132-0.348 0.453-0.242 0.96 0.054 0.348 0.176 0.692 0.359 1.04-0.504-0.133-0.957-0.106-1.359 0.082-0.024 0.691 0.293 1.171 0.961 1.437-0.106-0.023-0.254-0.012-0.442 0.043-0.211 0.051-0.359 0.078-0.437 0.078 0.027 0.801 0.027 1.399 0 1.801l-0.801 0.281c0.027-0.613-0.012-1.027-0.121-1.242-0.078-0.184-0.277-0.305-0.598-0.359l-0.922-0.039c0.082-0.188 0.266-0.457 0.563-0.801l0.277-0.281c-0.211-0.055-0.398-0.2-0.558-0.442l0.121 0.32-0.16-0.359-0.043-0.039-0.039-0.121-0.04-0.039c-0.027-0.133-0.027-0.32 0-0.563 0-0.211-0.093-0.386-0.281-0.519l-0.039-0.039c-0.613 0.054-1.015 0.082-1.199 0.082-0.082-0.614-0.172-1.028-0.281-1.242-0.188-0.293-0.52-0.454-1-0.481-0.348-0.027-0.746 0.039-1.2 0.199-0.425 0.16-0.761 0.364-1 0.602-0.054-0.238-0.082-0.602-0.082-1.078-0.023-0.375-0.21-0.617-0.558-0.723-0.348-0.078-0.707 0.027-1.078 0.32-0.297 0.215-0.469 0.454-0.524 0.719 0-0.16-0.023-0.414-0.078-0.758-0.371 0-0.762 0.039-1.16 0.118l-0.039 0.043v-0.04c-0.535 0.133-0.988 0.293-1.359 0.481-0.082-0.934-0.149-1.469-0.204-1.602l-1.117 0.321zm23.399 4.48-1.36-0.199c0.055-0.109 0.133-0.414 0.239-0.922 0.109-0.48 0.269-0.73 0.48-0.758 0.375-0.027 0.586 0.227 0.641 0.758v1.121zm-42.2 0.559c0.051-0.078 0.106-0.16 0.161-0.239v0.04c-0.188 0.292-0.321 0.558-0.403 0.8 0.11-0.027 0.282-0.039 0.524-0.039 0.211 0 0.558 0.012 1.039 0.039l0.039-0.879c0.055 0 0.133-0.015 0.238-0.043 0.11-0.027 0.215-0.011 0.32 0.043 0.055-0.16 0.122-0.429 0.204-0.8 0.078-0.293 0.238-0.496 0.476-0.602 0.242 0.242 0.348 0.563 0.32 0.961 0.297-0.348 0.614-0.613 0.961-0.801-0.214-0.508-0.625-0.691-1.238-0.558-0.586 0.132-1.109 0.464-1.562 1-0.051-0.161-0.106-0.293-0.161-0.403l-0.918 1.242c-0.265 0.079-0.558 0.254-0.878 0.52 0.32 0.078 0.613-0.012 0.878-0.281zm13.399 0.441c-0.133-0.055-0.238-0.121-0.32-0.199-0.079 0.051-0.172 0.117-0.278 0.199-0.828 0.508-1.629 0.828-2.402 0.961 0.402-0.082 0.828-0.336 1.281-0.762 0.746-0.531 1.149-0.933 1.199-1.199-0.214 0.027-0.371 0.039-0.48 0.039-0.184 0.028-0.332 0-0.438-0.078 0-0.027 0.024-0.109 0.079-0.242-0.239 0.133-0.414 0.281-0.52 0.441 0 0.028 0.027 0.039 0.078 0.039-0.078 0.055-0.144 0.094-0.199 0.121-0.133 0.372-0.238 0.625-0.32 0.758-0.161 0.27-0.399 0.414-0.719 0.442l-0.442 0.039c-0.957 0.961-1.796 1.629-2.519 2 1.414-0.317 3.016-1.051 4.801-2.199 0.133 0.054 0.254 0.093 0.359 0.121h0.082c-0.109 0.16-0.215 0.304-0.32 0.437-0.375 0.402-0.656 0.707-0.84 0.922l-1.359 1.48c-0.641 0.852-1.176 1.438-1.602 1.758-0.879 0.668-2.094 1.442-3.641 2.321-0.961 0.586-1.679 1-2.16 1.242-0.586 0.16-1.027 0.304-1.32 0.437 0.695 0.11 1.922-0.183 3.68-0.879 1.386-0.507 2.336-0.972 2.839-1.398 0.508-0.402 1.11-0.934 1.801-1.602 0.106-0.078 0.215-0.172 0.321-0.281 0.16-0.16 0.347-0.344 0.558-0.558l-0.238 0.16c0.105-0.078 0.238-0.188 0.398-0.321 0.11-0.105 0.242-0.226 0.403-0.359l0.597-0.598c0.11-0.109 0.215-0.215 0.321-0.32l0.242-0.242 0.078 0.082c0.109 0.105 0.242 0.183 0.402 0.238-0.269 0.055-0.508 0.11-0.722 0.16 0.613 0.399 1.175 0.68 1.679 0.84 0.055-0.105 0.16-0.187 0.321-0.238-0.024-0.133-0.067-0.281-0.118-0.442-0.054-0.16-0.16-0.386-0.32-0.679 0.531-0.348 1.211-0.442 2.039-0.281-0.133-0.133-0.387-0.333-0.762-0.602-0.32-0.238-0.503-0.477-0.558-0.719 0.055-0.051 0.105-0.094 0.16-0.117l-0.48-0.043c-0.266 0.215-0.465 0.387-0.598 0.52-0.375 0.586-0.684 1.015-0.922 1.281-0.027 0.027-0.066 0.055-0.121 0.082 0.133-0.215 0.293-0.442 0.48-0.68 0.801-1.094 1.243-1.707 1.321-1.84-0.078-0.054-0.2-0.07-0.36-0.043-0.214 0.055-0.347 0.082-0.398 0.082 0-0.109-0.016-0.203-0.043-0.281zm44.801 16.16 0.558-0.121 0.043-0.238v-0.223c-0.004-0.164-0.019-0.32-0.043-0.457h0.043c0.399 0.477 0.774 1.254 1.117 2.321 0.481 1.543 0.774 3.238 0.883 5.078 0-0.266 0.051-0.602 0.16-1 0.184-0.614 0.278-1.067 0.278-1.36-0.051-1.679-0.133-2.8-0.239-3.359-0.187-0.934-0.667-1.828-1.441-2.68-0.508-0.535-0.867-0.922-1.078-1.16-0.027 0-0.039-0.016-0.039-0.043-0.082-0.051-0.137-0.094-0.16-0.117-0.055-0.055-0.11-0.109-0.16-0.16l-0.122 0.398-1.359-0.597c0-0.137 0.012-0.454 0.039-0.961 0.028-0.454-0.012-0.75-0.117-0.883-0.187-0.211-0.387-0.317-0.602-0.317v0.36c-0.187 1.226-0.281 2.16-0.281 2.801v1.277c0.852-0.188 1.469-0.227 1.84-0.121 0 0.695 0.039 1.203 0.121 1.523 0.184 0.024 0.371 0.039 0.559 0.039zm2.039-14.082c-0.321 0.188-0.68 0.375-1.078 0.563l-1.2-0.641c-0.296 0.508-0.48 0.797-0.562 0.879-0.184 0.242-0.438 0.426-0.758 0.563-0.402 0.156-0.933 0.21-1.601 0.156-0.692-0.051-0.961-0.399-0.801-1.039-0.293-0.106-0.547-0.227-0.758-0.36 0.078 0.348 0.133 0.614 0.16 0.801-0.265 0.027-0.547-0.015-0.84-0.121v0.16c-0.082 1.492-0.574 2.774-1.48 3.84 0.051 0.535 0.051 0.988 0 1.359-0.055 0.243-0.215 0.454-0.481 0.641-0.32 0.242-0.507 0.426-0.562 0.563-0.078 0.156-0.106 0.359-0.078 0.597 0.027 0.321 0.027 0.535 0 0.641-0.028 0.347-0.242 0.801-0.641 1.359-0.105 0.133-0.441 0.387-1 0.762-0.453 0.293-0.707 0.559-0.762 0.797l-3.117 0.762c0.293 0.054 0.641 0.066 1.039 0.039 0.055-0.024 0.094-0.051 0.121-0.079 0.399-0.293 0.786-0.402 1.16-0.32 0.079 0.027 0.184 0.094 0.317 0.199 0.402-0.078 0.801-0.187 1.203-0.32 0.691-0.238 1.145-0.504 1.359-0.801l0.079 0.121c0.054-0.054 0.226-0.601 0.519-1.64 0.773-0.504 1.043-0.879 0.801-1.117 0.508 0 0.84 0.371 1 1.117 0.027 0.429 0.055 0.773 0.082 1.039 0.078 0.027 0.144 0.066 0.199 0.121 0.082 0.055 0.133 0.16 0.16 0.32 0.239-0.051 0.586-0.16 1.039-0.32 0.293-0.078 0.547-0.133 0.762-0.16-0.027-0.426-0.043-0.907-0.043-1.438 0-0.828 0.055-1.402 0.16-1.722-0.238-0.348-0.574-0.106-1 0.722-0.133-0.801-0.199-1.441-0.199-1.922 0.055-0.773 0.242-1.281 0.559-1.519 0.187-0.133 0.496-0.199 0.921-0.199 0.454-0.028 0.758 0.027 0.918 0.16 0.215 0.16 0.36 0.426 0.442 0.801 0.105 0.476 0.199 0.785 0.281 0.918 0.238-0.614 0.586-0.719 1.039-0.321 0.133 0.106 0.242 0.215 0.32 0.321-0.054-0.215-0.093-0.399-0.121-0.559v-0.082c-0.32-0.426-0.507-0.84-0.558-1.238l-0.078 0.039c-0.481 0.027-0.973-0.055-1.481-0.239-0.668-0.242-0.828-0.574-0.48-1 0.215-0.242 0.707-0.414 1.48-0.523 0.746-0.106 1.266-0.106 1.559 0 0.242 0.109 0.359 0.387 0.359 0.84l-0.398 0.242c0.105 0.105 0.215 0.227 0.32 0.359 0.078 0.082 0.172 0.2 0.277 0.36 0.161-0.028 0.364-0.028 0.602 0-0.082-0.266-0.172-0.586-0.281-0.961-0.317-1.09-0.438-1.797-0.36-2.117 0.348-0.133 0.657-0.082 0.922 0.16 0.16 0.133 0.371 0.386 0.641 0.758 0-0.079-0.028-0.625-0.082-1.641-0.024-0.238-0.024-0.465 0-0.68zm-1.36 11.043c0.27 0.106 0.547 0.16 0.84 0.16l-0.121-1.082c-0.023-0.132-0.039-0.281-0.039-0.441-0.051 0-0.094-0.012-0.117-0.039-0.375-0.211-0.602-0.371-0.684-0.481-0.105-0.16-0.172-0.32-0.199-0.48v2.242h0.039l0.16 0.078 0.121 0.043zm14.442 2.637c-0.055 0.082-0.106 0.148-0.16 0.203 0.293 0.211 0.601 0.371 0.918 0.481 0.91 0.265 1.562-0.082 1.961-1.043 0.265-0.614 0.347-1.747 0.242-3.399-0.028-0.48-0.254-1.105-0.684-1.879-0.105-0.215-0.211-0.414-0.316-0.601l-0.242 0.32c-0.133 0.133-0.2 0.281-0.2 0.441 0.028 0.161 0.121 0.36 0.282 0.598 0.16 0.242 0.254 0.426 0.277 0.563 0.082 0.293 0.043 0.597-0.117 0.918 0.133 0.375 0.25 0.878 0.359 1.519 0.106 0.801 0 1.348-0.32 1.641-0.348 0.32-0.867 0.425-1.559 0.32-0.164-0.027-0.308-0.055-0.441-0.082zm4.437-4.238c0.774 0.933 1.43 1.8 1.961 2.601 0.321 0.477 0.614 1.106 0.879 1.879 0.43 0.879 0.707 1.547 0.844 2 0.211 0.664 0.383 1.801 0.519 3.399-0.187-3.039-0.281-4.586-0.281-4.641-0.293-2.133-0.949-3.84-1.961-5.117-1.386-1.762-2.519-3.028-3.398-3.801-0.293-0.266-0.656-0.535-1.082-0.801 0.215 0.375 0.347 0.746 0.402 1.121 0.024 0.106 0.039 0.215 0.039 0.321 0.16 0.16 0.32 0.332 0.481 0.519 0.773 0.824 1.304 1.664 1.597 2.52zm6.282-5.399v0.477c0.027 0.269 0.027 0.441 0 0.523-0.028 0.051-0.149 0.133-0.36 0.239-0.961 0.507-2.359 0.601-4.199 0.281l0.437 0.558c-0.238 0-0.542-0.066-0.918-0.199-0.425-0.16-0.734-0.265-0.917-0.32-0.11-0.028-0.188-0.055-0.243-0.082-0.375 0.027-0.691 0.027-0.961 0l-0.16-0.078c0.27 0.16 0.657 0.398 1.16 0.718 0.614 0.403 1.121 0.629 1.52 0.68 1.094 0.242 2.187 0.109 3.281-0.398 1.121-0.481 1.746-1.293 1.883-2.442 0-0.078 0.012-0.172 0.039-0.281-0.215 0.109-0.398 0.215-0.559 0.324h-0.003zm-4.481 1.278c0.348 0.027 0.746 0.066 1.199 0.121 1.336 0.16 2.336 0.078 3-0.239-0.238-0.054-0.371-0.109-0.398-0.16-0.027-0.027 0-0.136 0.082-0.32 0.051-0.137 0.133-0.309 0.238-0.52-0.105 0.079-0.215 0.133-0.32 0.161-0.051 0.156-0.106 0.277-0.16 0.359-0.184 0.293-0.36 0.48-0.52 0.559-0.16 0.105-0.547 0.16-1.16 0.16-0.266 0.027-0.773-0.039-1.52-0.2h-0.121c-0.105 0.028-0.214 0.055-0.32 0.079zm-17.519-9.52c0.054 0.348 0.066 0.734 0.039 1.16-0.051 0.719-0.239 1.332-0.559 1.84 0.106 0.242 0.172 0.586 0.199 1.039 0.11-0.051 0.215-0.105 0.321-0.16 0.906-0.426 1.933-0.57 3.082-0.438 0.398 0.051 0.718 0.227 0.957 0.52 0.269 0.32 0.468 0.547 0.601 0.68 0.004 0.027 0.016 0.039 0.039 0.039v0.039l0.039 0.043v1.238c0.028 0.293 0.055 0.535 0.082 0.719 0.801-0.051 1.321 0 1.559 0.16 0.348 0.242 0.48 0.641 0.402 1.199-0.054 0.43-0.203 0.828-0.441 1.203 0.055 0.028 0.121 0.039 0.199 0.039 0.188-0.054 0.414-0.148 0.68-0.281 0.293-0.078 0.801-0.039 1.519 0.121 0.723 0.16 1.227 0.172 1.52 0.039 0.027 0 0.094-0.039 0.203-0.121-0.617-0.105-1.094-0.344-1.441-0.719-0.082-0.078-0.149-0.183-0.2-0.32-0.082 0-0.148-0.012-0.199-0.039-0.375-0.105-0.656-0.398-0.844-0.879-0.023-0.109-0.05-0.226-0.078-0.359-0.133-0.055-0.265-0.11-0.402-0.16-0.156-0.11-0.426-0.227-0.797-0.36-0.293-0.16-0.52-0.336-0.68-0.523-0.429-0.449-0.668-1.145-0.722-2.078-0.028-0.453-0.028-0.868 0-1.239-0.293 0.106-0.52 0.118-0.676 0.039-0.242-0.109-0.375-0.347-0.402-0.722v-0.84c-0.481-0.133-0.973-0.039-1.481 0.281l-0.48 0.281c-0.051-0.132-0.106-0.48-0.161-1.039-0.023-0.375-0.21-0.64-0.558-0.8-0.32-0.133-0.641-0.11-0.961 0.078-0.16 0.082-0.277 0.187-0.359 0.32zm-3.918 14.762 0.117-0.442c-0.399-0.054-0.797-0.054-1.199 0 0.265 0.082 0.48 0.149 0.64 0.2 0.133 0.054 0.281 0.132 0.442 0.242zm-24.68-11.403c0.371-0.16 0.719-0.171 1.039-0.039 0.238 0.106 0.519 0.321 0.84 0.641l-0.801 0.602c-0.32-0.055-0.586-0.188-0.801-0.403-0.238-0.238-0.332-0.508-0.277-0.801zm13.918-0.957c-0.106 0.45-0.188 0.774-0.242 0.957l-1.918-1c0.082-0.265 0.347-0.519 0.8-0.757 0.454-0.27 0.813-0.293 1.079-0.082 0.242 0.187 0.336 0.48 0.281 0.882zm-40.281-2.839-0.161-0.243c-0.265 0.243-0.453 0.453-0.558 0.641-0.453-0.215-0.813-0.32-1.078-0.32h-0.121l-0.52 0.359c0.16 0.133 0.184 0.469 0.078 1 0.215-0.48 0.735-0.824 1.563-1.039 0.051 0.238 0.078 0.441 0.078 0.602 0.105-0.137 0.266-0.364 0.48-0.684 0.078-0.106 0.16-0.211 0.239-0.316zm2.402 0.238c-0.133-0.32-0.242-0.641-0.32-0.961-0.453-0.027-0.934 0.133-1.442 0.48 0.106 0.082 0.254 0.243 0.442 0.481 0.238 0.32 0.48 0.469 0.718 0.441 0.188-0.027 0.387-0.176 0.602-0.441zm5.68 1.801c-0.133-0.11-0.227-0.215-0.282-0.321l-0.238 0.84c0.133 0.082 0.293 0.16 0.481 0.242 0.183 0.078 0.343 0.157 0.476 0.239h0.082c0.106-0.028 0.227-0.039 0.36-0.039-0.161-0.11-0.348-0.243-0.559-0.403-0.215-0.187-0.32-0.371-0.32-0.558zm0.961-1.762c-0.348 0.027-0.575 0.055-0.68 0.082-0.375 0.078-0.695 0.238-0.961 0.48 0.027 0 0.066 0.012 0.117 0.039 0.028-0.027 0.055-0.066 0.082-0.121 0.293-0.343 0.934-0.316 1.918 0.082-0.238-0.136-0.398-0.32-0.476-0.562z" inkscape:connector-curvature="0"/>
      <g id="g20">
        <g id="g22">
          <g id="g28">
            <path id="path36" style="fill-rule:evenodd;fill:url(#linearGradient30)" d="m80.641 21.68c0.082-0.133 0.148-0.266 0.203-0.398 0.16-0.321 0.199-0.625 0.117-0.918-0.023-0.137-0.117-0.321-0.281-0.563-0.157-0.238-0.25-0.437-0.278-0.598 0-0.16 0.067-0.308 0.2-0.441l0.238-0.32 0.121-0.121c0.055-0.106 0.105-0.227 0.16-0.36 0.082-0.187 0.121-0.375 0.121-0.558 0-0.106-0.015-0.215-0.043-0.321-0.051-0.375-0.183-0.746-0.398-1.121l-0.082-0.078v-0.043c-1.039 0.137-1.758 0.176-2.16 0.121-0.184 0-0.36-0.027-0.52-0.078-0.105 0.078-0.172 0.117-0.199 0.117-0.293 0.137-0.801 0.121-1.52-0.039-0.718-0.16-1.226-0.199-1.519-0.121-0.266 0.137-0.492 0.227-0.68 0.281-0.027 0.028-0.055 0.039-0.082 0.039-0.613 0.082-1.332-0.117-2.16-0.597-0.293-0.16-0.465-0.281-0.52-0.36-0.023-0.027-0.039-0.082-0.039-0.16-0.027-0.109-0.05-0.254-0.078-0.441 0-0.106-0.015-0.309-0.043-0.602v-0.16h-0.039c-0.879 0.055-1.547 0.082-2 0.082-0.824 0.027-1.453-0.105-1.879-0.402-0.32-0.184-0.547-0.41-0.679-0.68-0.055 0.137-0.094 0.293-0.122 0.481 0 0.773-0.054 1.293-0.16 1.562-0.132 0.371-0.308 0.586-0.519 0.637l-0.801-0.039h-0.039c-0.242-0.028-0.441-0.028-0.602 0-0.691 0.082-1.023 0.468-1 1.16v0.082c0.028 0.16 0.067 0.344 0.121 0.559 0.055 0.187 0.122 0.375 0.2 0.558 0.187 0.402 0.308 0.707 0.359 0.922v0.199c0.027 0.266 0.039 0.469 0.039 0.602 0 0.023 0.016 0.066 0.043 0.117 0.027 0.16 0.094 0.32 0.199 0.48 0.082 0.11 0.305 0.27 0.68 0.481 0.027 0.027 0.066 0.039 0.121 0.039 0.293 0.187 0.453 0.32 0.481 0.402 0.05 0.106 0.078 0.321 0.078 0.641 0 0.16 0.015 0.293 0.043 0.398 0 0.106 0.011 0.188 0.039 0.243 0.187 0.453 0.547 0.796 1.078 1.039 0.297 0.16 0.789 0.304 1.48 0.437l-0.281 0.68c-0.023 0.297 0.363 0.722 1.16 1.281 0.348 0.266 0.68 0.414 1 0.441 0.16 0 0.535-0.039 1.121-0.121 0.508-0.078 0.907-0.078 1.2 0 0.132 0.028 0.32 0.106 0.558 0.243 0.27 0.05 0.613 0.05 1.043 0 0.238-0.055 0.586-0.122 1.039-0.204 0.375-0.078 0.906-0.16 1.602-0.238 0.558-0.082 1.039-0.265 1.437-0.558 0.188-0.137 0.36-0.297 0.52-0.481 0.054-0.055 0.109-0.121 0.16-0.203 0.055-0.078 0.109-0.172 0.16-0.277 0.055-0.11 0.121-0.243 0.199-0.403 0.082-0.211 0.176-0.48 0.282-0.797 0.054-0.16 0.375-0.601 0.96-1.32 0.055-0.082 0.106-0.148 0.161-0.203z" inkscape:connector-curvature="0"/>
          </g>
        </g>
      </g>
      <g id="g38">
        <g id="g40">
          <g id="g46">
            <path id="path54" style="fill-rule:evenodd;fill:url(#linearGradient48)" d="m90.16 14.723c0.348-0.215 0.735-0.453 1.16-0.719 0.242-0.16 0.547-0.414 0.922-0.762 0.371-0.375 0.668-0.625 0.879-0.761l0.402-0.199c0.211-0.079 0.493-0.184 0.84-0.317 0.16-0.055 0.317-0.121 0.481-0.203 0.105-0.051 0.199-0.094 0.277-0.117 0.109-0.055 0.203-0.11 0.281-0.16 0.481-0.243 0.746-0.496 0.801-0.762 0.027-0.348-0.332-0.52-1.082-0.52-0.266 0-0.586 0.016-0.957 0.039h-0.082c-0.133 0.028-0.293 0.067-0.48 0.122h-0.04c-0.269 0.105-0.574 0.226-0.921 0.359-0.161 0.055-0.332 0.121-0.52 0.199-0.797 0.375-1.48 0.547-2.039 0.52h-0.039c-0.32-0.024-0.707-0.16-1.16-0.399-0.481-0.293-0.84-0.465-1.082-0.519-0.239-0.055-0.574-0.055-1 0-0.559 0.082-0.891 0.121-1 0.121-0.399 0.023-0.785-0.016-1.16-0.121-0.293-0.055-0.571-0.149-0.84-0.282-0.16-0.078-0.332-0.21-0.52-0.398l-2.437 0.801c-1.121 0-2.082-0.203-2.883-0.602-0.934-0.453-1.371-1.078-1.32-1.879-0.293-0.429-0.481-0.683-0.559-0.761-0.105-0.106-0.199-0.215-0.281-0.321-0.16-0.078-0.293-0.133-0.399-0.16-0.16-0.023-0.464 0-0.922 0.082-0.078 0.028-0.144 0.039-0.199 0.039-0.691 0.215-1.16 0.629-1.398 1.242-0.106 0.239-0.172 0.547-0.199 0.918-0.028 0.375-0.028 0.786 0 1.243 0.05 0.933 0.293 1.625 0.718 2.078 0.16 0.187 0.387 0.359 0.68 0.519 0.375 0.133 0.641 0.254 0.801 0.36 0.133 0.054 0.265 0.109 0.398 0.16 0.453 0.215 0.746 0.402 0.883 0.558 0.024 0.297 0.106 0.536 0.238 0.723 0.055 0.133 0.121 0.238 0.2 0.32 0.347 0.371 0.828 0.614 1.441 0.719 0.16 0.055 0.332 0.078 0.519 0.078 0.399 0.055 1.122 0.016 2.161-0.117l1.558 0.598 0.16 0.082c0.27 0.023 0.586 0.023 0.961 0 0.188 0 0.399-0.016 0.641-0.043 0.266-0.051 0.625-0.106 1.078-0.16 0.109-0.024 0.215-0.051 0.32-0.079h0.161c0.8-0.078 1.519-0.214 2.16-0.398 0.32-0.082 0.707-0.242 1.16-0.48 0.105-0.028 0.215-0.082 0.32-0.161 0.106-0.054 0.227-0.109 0.36-0.16 0.16-0.109 0.347-0.215 0.562-0.32h-0.004z" inkscape:connector-curvature="0"/>
          </g>
        </g>
      </g>
      <path id="path56" style="fill-rule:evenodd;fill:#6d7247" d="m80.961 5.801c-0.32-0.984-0.574-1.613-0.758-1.879-0.109-0.133-0.226-0.254-0.359-0.359 0.078 0.078 0.16 0.156 0.238 0.238 0.242 0.266 0.469 0.762 0.68 1.481l0.199 0.519zm-42.039-3.598c0.082 0.051 0.172 0.106 0.281 0.161 0.184 0.132 0.359 0.265 0.52 0.398-0.028-0.055-0.067-0.094-0.121-0.121-0.215-0.188-0.442-0.332-0.68-0.438zm-2.961 0.598c0.187-0.293 0.48-0.531 0.883-0.719 0.105-0.054 0.226-0.093 0.359-0.121-1.387 0.133-1.867 1-1.441 2.602 0.027 0.078 0.054 0.16 0.082 0.238-0.215-0.746-0.176-1.414 0.117-2zm-1.359 0.441c0.054 0.051 0.105 0.106 0.16 0.161 0.242 0.16 0.453 0.332 0.64 0.519-0.242-0.265-0.507-0.492-0.8-0.68zm-12.719-1.32c-0.602 0.524-0.641 1.051-0.121 1.582v-0.023c-0.321-0.426-0.348-0.852-0.078-1.278 0.05-0.109 0.117-0.203 0.199-0.281zm0.801-0.519c0.078-0.028 0.183-0.067 0.32-0.121 0.426-0.106 0.785-0.161 1.078-0.161 0.613 0 1.145 0.133 1.602 0.399-0.989-0.613-1.989-0.653-3-0.117zm-4.122 3.039 0.36-0.078 0.039-0.043c-0.16 0.054-0.293 0.093-0.399 0.121zm-12.839 3.84v-0.04c-0.055 0.079-0.106 0.161-0.161 0.239 0.055-0.051 0.106-0.117 0.161-0.199zm3.398 2.761c-0.027 0-0.066-0.015-0.117-0.043l-0.043-0.039c0.129 0.231 0.336 0.324 0.621 0.281-0.156 0.02-0.297-0.019-0.422-0.121l-0.039-0.078zm6.16 3.16c0.16-0.269 0.696-0.402 1.602-0.402 0.64 0 1.426 0.016 2.359 0.039v-0.84c0.028-0.023 0.055-0.051 0.078-0.078-0.504-0.16-1.066-0.441-1.679-0.84-0.371 0.426-0.703 0.731-1 0.918l-0.481 0.282-0.558 0.558c-0.106 0.109-0.215 0.199-0.321 0.281v0.082zm20.922 1c-0.242 0.637-0.441 1.094-0.601 1.36-0.188 0.023-0.348 0.011-0.481-0.043v0.121c0.027 0.133 0.039 0.308 0.039 0.519 0.188-0.16 0.375-0.414 0.563-0.757 0.132-0.243 0.293-0.641 0.48-1.2zm14.039 8.079-0.441 0.121c0.426 0.183 0.883 0.183 1.359 0 0.028-0.028 0.067-0.055 0.121-0.082-0.398 0.027-0.746 0.015-1.039-0.039zm14.121 1.218v-0.457h-0.043c0.024 0.137 0.039 0.293 0.043 0.457zm-0.601 0.582c-0.188 0-0.375-0.015-0.559-0.039-0.082-0.32-0.121-0.828-0.121-1.523-0.371-0.106-0.988-0.067-1.84 0.121v0.32l-0.082-0.121c-0.156 0.43-0.211 0.695-0.156 0.801 0.051 0.242 0.211 0.375 0.476 0.402 0.161 0.024 0.43 0.024 0.801 0h0.039l0.043-0.32c0.426 0.293 0.891 0.414 1.399 0.359zm0.359-3.16-0.117-0.082c0 0.027 0.012 0.043 0.039 0.043 0.027 0.024 0.051 0.039 0.078 0.039zm0.32 0.121c0.454 0.211 0.883 0.239 1.282 0.078-0.028-0.105-0.039-0.238-0.039-0.398 0-0.32-0.028-0.535-0.082-0.641-0.028-0.082-0.188-0.215-0.481-0.402 0 0.16 0.016 0.309 0.039 0.441l0.121 1.082c-0.293 0-0.57-0.054-0.84-0.16zm1.36-11.043c-0.024 0.215-0.024 0.442 0 0.68 0.054 1.016 0.082 1.562 0.082 1.641-0.266-0.372-0.481-0.625-0.641-0.758-0.265-0.242-0.574-0.293-0.918-0.16-0.082 0.32 0.039 1.027 0.36 2.117 0.105 0.375 0.199 0.695 0.277 0.961h0.043l0.801 0.039c0.211-0.051 0.383-0.266 0.519-0.637 0.106-0.269 0.156-0.789 0.156-1.562 0.028-0.184 0.071-0.344 0.122-0.481-0.133-0.238-0.172-0.519-0.122-0.84 0.055-0.453 0.321-0.84 0.801-1.16-0.027-0.453-0.093-0.797-0.199-1.039-0.105 0.133-0.215 0.266-0.32 0.402-0.239 0.266-0.559 0.532-0.961 0.797zm-1.438 4.481c-0.109-0.16-0.203-0.278-0.281-0.36-0.105-0.132-0.215-0.254-0.32-0.359l-0.961 0.641c0.054 0.398 0.242 0.812 0.562 1.238-0.027-0.692 0.305-1.078 1-1.16zm9.758 0.64c-0.078 0-0.144-0.011-0.199-0.039 0.238-0.375 0.387-0.773 0.441-1.199 0.078-0.562-0.054-0.961-0.402-1.203-0.238-0.16-0.758-0.211-1.559-0.16-0.027-0.184-0.054-0.426-0.082-0.719v0.922c-0.132 0.078-0.476 0.117-1.039 0.117 0.028 0.535 0.055 0.949 0.082 1.242l-0.039-0.039c0 0.078 0.012 0.133 0.039 0.16 0.051 0.079 0.227 0.2 0.52 0.36 0.828 0.48 1.547 0.679 2.16 0.597 0.027 0 0.051-0.011 0.078-0.039zm-1.879-4.679c0.004 0.031 0.016 0.054 0.039 0.078v-0.039c-0.023 0-0.035-0.012-0.039-0.039zm5.762-6.078 0.199 0.355-0.043-0.277-0.156-0.078zm-0.602 1.597c-0.132-0.293-0.375-0.465-0.718-0.519-0.375-0.055-0.657 0.093-0.84 0.441-0.028 0.078-0.043 0.145-0.043 0.199 0.082 0.106 0.176 0.215 0.281 0.321 0.082 0.078 0.266 0.332 0.559 0.757 0-0.132 0.015-0.281 0.043-0.441 0.05-0.289 0.293-0.543 0.718-0.758zm7.239 3.559c0.136 0 0.269-0.012 0.402-0.039 0.586-0.184 0.852-0.547 0.801-1.078-0.27-0.082-0.723-0.161-1.364-0.243 0 0.11-0.011 0.204-0.039 0.282l-1.16 0.398c0.188 0.188 0.36 0.32 0.52 0.402 0.269 0.133 0.547 0.227 0.84 0.278zm-4.637-4.039c-0.242-0.078-0.535-0.145-0.883-0.199-1.039-0.161-1.598 0.066-1.68 0.679 0.161-0.078 0.348-0.144 0.559-0.199 0.586-0.188 1.176-0.281 1.762-0.281h0.242zm1.558 0.32c0.161 0.082 0.321 0.16 0.481 0.242 0.508 0.239 0.984 0.52 1.437 0.84 0.028-0.16 0-0.336-0.078-0.519l-0.199-0.321-0.359 0.039-0.082-0.281c-0.321-0.105-0.707-0.105-1.16 0h-0.04zm-21.48 14.68c-0.215 0.027-0.465 0.082-0.758 0.16-0.453 0.16-0.801 0.266-1.043 0.32 0 0.133-0.011 0.293-0.039 0.481-0.027 0.48 0.051 0.785 0.238 0.922 0.11 0.078 0.297 0.117 0.563 0.117h0.078c0.055-0.051 0.133-0.106 0.242-0.16 0.188-0.079 0.375-0.133 0.559-0.161 0.133-0.105 0.254-0.171 0.359-0.199 0.028 0 0.055-0.012 0.082-0.039h-0.043c-0.105-0.32-0.183-0.801-0.238-1.441zm-3.199 0.281v-0.441c0.211 0.027 0.398 0.109 0.558 0.242h0.121c0.133-0.028 0.254-0.043 0.36-0.043-0.027-0.266-0.055-0.613-0.082-1.039-0.16-0.746-0.492-1.117-1-1.117 0.242 0.238-0.024 0.613-0.797 1.117-0.293 1.039-0.469 1.586-0.52 1.64l-0.082-0.121c-0.214 0.297-0.664 0.563-1.359 0.801-0.398 0.133-0.801 0.242-1.199 0.32 0.055 0.106 0.133 0.215 0.238 0.321 0.215 0.238 0.43 0.375 0.641 0.398 0.242 0.027 0.453-0.039 0.64-0.199 0.188-0.133 0.293-0.32 0.321-0.559 0.691-0.054 1.066-0.082 1.121-0.082 0.426-0.078 0.707-0.254 0.84-0.519 0.027-0.078 0.05-0.211 0.078-0.399 0-0.105 0.039-0.215 0.121-0.32zm-14.922-9.801c0.375-0.375 0.707-0.492 1-0.359 0 0.453 0.082 1.359 0.242 2.719h0.117c-0.023-0.215-0.05-0.442-0.078-0.68 0.028-0.32 0.281-0.535 0.762-0.641 0.398-0.133 0.68-0.105 0.84 0.082 0.105 0.16 0.183 0.481 0.238 0.957 0.106-0.558 0.574-1.011 1.398-1.359 0.696-0.316 1.348-0.438 1.961-0.359 0.106 0.746 0.094 1.574-0.039 2.48 1.039-0.613 1.735-0.719 2.078-0.32 0.137-0.078 0.282-0.184 0.442-0.317 0.32-0.187 0.64-0.121 0.961 0.2 0.133 0.132 0.254 0.25 0.359 0.359 0.375-0.188 0.653-0.387 0.84-0.602 0.266-0.398 0.332-0.918 0.199-1.558-0.957 0.187-1.547 0.332-1.758 0.441 0.399-0.215 0.692-0.601 0.879-1.16 0.215-0.668 0.11-1.137-0.32-1.402-0.316-0.188-0.773-0.16-1.359 0.082-0.426 0.183-0.825 0.441-1.2 0.758 0-0.051-0.011-0.317-0.039-0.801 0-0.293-0.054-0.547-0.16-0.758-0.613 0.055-1.094 0.375-1.441 0.961l-0.121-1.402c-1.094-0.133-1.852 0.238-2.282 1.121-0.371-0.883-0.746-1.254-1.117-1.121-0.347 0.105-0.535 0.601-0.562 1.48-0.531-0.691-1.051-0.84-1.559-0.441l-0.039 0.043v0.039l-0.043-0.039c-0.183 0.156-0.265 0.398-0.238 0.718 0.027 0.481 0.039 0.774 0.039 0.879zm12.121 3.602c-0.027-0.11-0.094-0.227-0.199-0.36-0.188-0.214-0.535-0.32-1.039-0.32-0.16 0.024-0.309 0.039-0.442 0.039 0.16 0.188 0.266 0.332 0.321 0.442 0.078 0.265 0.132 0.453 0.16 0.558 0.051 0.215 0.172 0.332 0.359 0.36 0.133 0.027 0.348-0.133 0.641-0.481 0.078-0.078 0.144-0.16 0.199-0.238zm-13.199-1.36c-0.16 0.024-0.293 0.051-0.403 0.079-0.05 0.265-0.023 0.546 0.082 0.839 0.079 0 0.172 0.016 0.282 0.043 0.023-0.215 0.039-0.535 0.039-0.961zm0.238-1.121c0.133-0.242 0.309-0.492 0.52-0.761 0.109-0.106 0.203-0.211 0.281-0.317-0.695 0.051-1.106 0.106-1.238 0.16 0.078 0.289 0.226 0.598 0.437 0.918zm-6.598 0.2c0 0.16-0.015 0.332-0.043 0.519-0.21 1.309-0.304 2.039-0.277 2.199 0.371 0.028 0.598 0.067 0.68 0.121 0.051 0.028 0.105 0.106 0.16 0.243 0.348-0.375 0.48-0.79 0.398-1.243-0.105-0.453-0.425-0.652-0.961-0.601 0.188-0.106 0.309-0.266 0.364-0.477 0.051-0.215 0.027-0.414-0.082-0.601-0.055-0.078-0.133-0.133-0.239-0.16zm-5.961-4.559-1.121 0.797c0.028 0.109 0.067 0.242 0.121 0.402 0.293 1.012 0.774 1.84 1.442 2.481 0.051 0 0.105-0.016 0.156-0.039 0.801-0.27 1.043 0.066 0.723 1 0.16 0.078 0.437 0.156 0.84 0.238 0-0.106-0.016-0.238-0.039-0.399-0.028-0.269 0.023-0.453 0.16-0.562 0.051-0.078 0.133-0.106 0.238-0.078 0.106 0 0.188-0.016 0.238-0.043 0.137-0.078 0.215-0.199 0.242-0.356 0.051-0.215 0.122-0.363 0.2-0.441 0.16-0.188 0.535-0.27 1.121-0.242 0.426 0.054 0.746 0.121 0.961 0.199 0.691-0.664 0.957-1.305 0.797-1.918-0.453 0-0.786 0.066-1 0.199-0.024-0.238-0.039-0.652-0.039-1.238-0.028-0.508-0.2-0.816-0.52-0.922-0.238-0.105-0.559-0.078-0.961 0.082-0.078 0.027-0.144 0.066-0.199 0.121 0.055 0.051 0.094 0.133 0.121 0.238 0.078 0.266 0.094 0.586 0.039 0.961-0.055 0.426-0.16 0.731-0.32 0.918h-2c-0.801 0.082-1.2-0.386-1.2-1.398zm-3.878-0.602c-0.321-0.347-0.414-0.773-0.282-1.281 0.321-0.051 0.586 0.082 0.801 0.402l-0.519 0.879zm2.718 1.161c-0.027-0.079-0.054-0.215-0.082-0.399-0.023-0.32-0.011-0.535 0.043-0.641 0.266-0.347 0.559-0.48 0.879-0.402 0.188 0.055 0.32 0.176 0.399 0.363 0.082-0.16 0.23-0.281 0.441-0.363 0.211-0.078 0.625-0.117 1.238-0.117 0.563-0.027 0.895-0.043 1-0.043h0.043c0.024-0.504 0.012-1.023-0.043-1.559-1.093-0.05-1.879 0.282-2.359 1 0.242-0.558 0.293-1.16 0.16-1.8-0.293-0.024-0.574 0.093-0.84 0.359-0.293 0.297-0.519 0.508-0.679 0.641-0.028-0.211-0.04-0.52-0.04-0.918 0-0.321-0.105-0.536-0.32-0.641-0.265-0.16-0.64-0.094-1.121 0.199-0.371 0.242-0.691 0.52-0.961 0.84 0.028-0.133 0-0.359-0.078-0.68-0.238-0.05-0.48-0.011-0.719 0.121l-0.043 0.399-0.039-0.121c-0.371-0.051-0.691 0-0.961 0.16-0.078 0.43-0.078 0.723 0 0.883-0.183-0.293-0.41-0.508-0.679-0.641-0.266-0.105-0.52-0.133-0.758-0.082 0.078 0.137 0.121 0.293 0.121 0.481 0.023 0.132 0.039 0.214 0.039 0.242-0.027 0-0.094 0.027-0.199 0.078h-0.16c0.078 0.242 0.238 0.43 0.476 0.562-0.984-0.402-1.625-0.425-1.918-0.082-0.027 0.055-0.054 0.094-0.082 0.121 0.16 0.051 0.297 0.161 0.402 0.321l-0.121 0.519c0.055 0.106 0.149 0.215 0.282 0.321-0.028-0.188 0.039-0.375 0.199-0.563 0.855 0.215 1.414 0.774 1.68 1.68l-0.52 0.363c-0.078-0.133-0.238-0.309-0.48-0.519-0.133 0-0.254 0.011-0.36 0.039h-0.082c0.188 0.16 0.309 0.347 0.363 0.558l-1.441-0.121c-0.055 0.027-0.105 0.067-0.16 0.121 0.055 0.242 0.238 0.481 0.558 0.719 0.375 0.269 0.629 0.469 0.762 0.602-0.828-0.161-1.508-0.067-2.039 0.281 0.16 0.293 0.266 0.519 0.32 0.679 0.051 0.161 0.094 0.305 0.118 0.438 0.214-0.078 0.519-0.09 0.921-0.039 0.747 0.109 1.188 0.066 1.321-0.121 0.051-0.051-0.028-0.356-0.242-0.918-0.106-0.719 0.015-1.254 0.363-1.598 0.344-0.375 0.84-0.617 1.476-0.722 0.723-0.133 1.176 0.039 1.364 0.519 0.051-0.426 0.293-0.746 0.718-0.957 0.426-0.215 0.84-0.242 1.239-0.082 0.269 0.082 0.441 0.215 0.519 0.402l0.082 0.118zm17.121 8.32c0.024-0.028 0.051-0.055 0.079-0.082-0.133-0.106-0.387-0.223-0.758-0.36 0.133 0.27 0.277 0.414 0.437 0.442h0.242zm-1.281-2.961c0 0.055 0.016 0.094 0.039 0.121v-0.039c-0.023-0.027-0.039-0.055-0.039-0.082zm0.399-8.277 0.043-0.161-0.043-0.16v0.321zm-7.957 1.437 0.16 0.359-0.121-0.32-0.039-0.039zm-18.204 4.32c-0.05 0-0.105 0.016-0.16 0.043l-0.597 0.598c0.215-0.188 0.465-0.398 0.757-0.641zm-5.558-4.757c0-0.161-0.027-0.364-0.078-0.602-0.828 0.215-1.348 0.559-1.563 1.039 0.106-0.531 0.082-0.867-0.078-1-0.426 0.266-0.656 0.414-0.68 0.441l-0.082-0.281c-0.347 0.188-0.664 0.453-0.961 0.801 0.028-0.398-0.078-0.719-0.32-0.961-0.238 0.106-0.398 0.309-0.476 0.602-0.082 0.371-0.149 0.64-0.204 0.8-0.105-0.054-0.21-0.07-0.32-0.043-0.105 0.028-0.183 0.043-0.238 0.043l-0.039 0.879c0.078 0.028 0.144 0.039 0.199 0.039 0.535 0.028 0.879-0.078 1.039-0.32 0.055-0.051 0.067-0.144 0.039-0.281 0-0.133 0.016-0.211 0.043-0.238 0.133-0.188 0.465-0.227 1-0.118 0.024-0.054 0.067-0.109 0.117-0.16 0.43-0.347 0.735-0.242 0.922 0.317v0.043c0.215 0 0.387-0.016 0.52-0.043 0.32-0.106 0.668-0.36 1.039-0.758 0.027-0.028 0.066-0.094 0.121-0.199zm15.32 0.359-0.68 0.519c-0.32-0.402-0.281-0.695 0.122-0.878 0.453-0.188 0.636-0.071 0.558 0.359zm-2.922-4.281v0.078l0.043-0.078h-0.043zm-7.238 4.64c-0.055 0.051-0.094 0.106-0.121 0.16 0.055-0.027 0.121-0.066 0.199-0.121-0.051 0-0.078-0.011-0.078-0.039z" inkscape:connector-curvature="0"/>
      <g id="g58">
        <g id="g60">
          <g id="g66">
            <path id="path74" style="fill-rule:evenodd;fill:url(#linearGradient68)" d="m71.203 13.84h0.078c0.563 0 0.907-0.039 1.043-0.117v-2.16l-0.043-0.043c-0.023-0.02-0.035-0.047-0.039-0.078-0.133-0.133-0.332-0.36-0.601-0.68-0.239-0.293-0.559-0.469-0.957-0.52-1.149-0.132-2.176 0.012-3.082 0.438-0.106 0.055-0.215 0.109-0.321 0.16-0.48 0.32-0.746 0.707-0.801 1.16-0.05 0.321-0.011 0.602 0.122 0.84 0.132 0.27 0.359 0.496 0.679 0.68 0.43 0.297 1.055 0.429 1.883 0.402 0.453 0 1.117-0.027 2-0.082h0.039z" inkscape:connector-curvature="0"/>
          </g>
        </g>
      </g>
      <path id="path76" style="fill-rule:evenodd;fill:#939865" d="m71.32 15.043 0.043 0.039c-0.027-0.293-0.054-0.707-0.082-1.242h-0.078v0.16c0.024 0.293 0.039 0.496 0.039 0.602 0.028 0.187 0.051 0.332 0.078 0.441zm-11.398 8.117c-0.188 0.028-0.375 0.082-0.559 0.161-0.109 0.054-0.187 0.109-0.242 0.16 0.188 0 0.348-0.028 0.481-0.078 0.082-0.028 0.187-0.106 0.32-0.243zm-2.481-1.597c-0.16-0.133-0.347-0.215-0.558-0.242v0.441c0.027 0 0.055-0.016 0.078-0.039 0.109-0.055 0.266-0.109 0.48-0.16zm-10-7.043c0.028-0.399 0.016-0.703-0.039-0.918-0.105-0.348-0.347-0.531-0.718-0.559-0.055 0.188-0.082 0.414-0.082 0.68 0.027 0.293 0.039 0.519 0.039 0.68l0.722 0.16c0.024 0 0.051-0.016 0.078-0.043zm-4.238-0.199c0.024 0.109 0.039 0.214 0.039 0.32 0 0.027 0.016 0.055 0.039 0.082 0.266 0.508 0.867 0.785 1.801 0.84l0.52-0.043c-0.266-0.453-0.614-0.797-1.04-1.039-0.402-0.211-0.812-0.266-1.242-0.16h-0.117zm-15.801-5.039c0 0.082 0.012 0.16 0.039 0.238l1.121-0.797c0-0.215 0.028-0.387 0.079-0.52-0.079-0.187-0.211-0.308-0.399-0.359-0.32-0.082-0.613 0.051-0.879 0.398-0.054 0.106-0.066 0.321-0.043 0.641 0.028 0.184 0.055 0.32 0.082 0.399zm-2.718-1.161 0.519-0.879c-0.215-0.32-0.48-0.453-0.801-0.402-0.132 0.508-0.039 0.934 0.282 1.281zm-3.961 0.282c0 0.183 0.105 0.371 0.32 0.558 0.211 0.16 0.398 0.293 0.559 0.403 0.242 0.21 0.402 0.382 0.48 0.515l0.52-0.359c-0.266-0.906-0.825-1.465-1.68-1.68-0.16 0.188-0.227 0.375-0.199 0.563z" inkscape:connector-curvature="0"/>
      <g id="g78">
        <g id="g80">
          <g id="g86">
            <path id="path94" style="fill-rule:evenodd;fill:url(#linearGradient88)" d="m77.402 6.961c-0.425 0.215-0.668 0.469-0.718 0.758-0.028 0.16-0.043 0.309-0.043 0.441-0.051 0.801 0.386 1.426 1.32 1.883 0.801 0.399 1.762 0.598 2.883 0.598l2.437-0.801 1.16-0.398c0.028-0.078 0.039-0.172 0.039-0.282-0.023-0.16-0.089-0.347-0.199-0.558-0.265-0.266-0.531-0.508-0.801-0.719-0.453-0.32-0.929-0.601-1.437-0.84-0.16-0.082-0.32-0.16-0.481-0.242-0.507-0.215-1.027-0.32-1.558-0.32h-0.242c-0.586 0-1.172 0.093-1.758 0.281-0.215 0.055-0.402 0.121-0.563 0.199h-0.039z" inkscape:connector-curvature="0"/>
          </g>
        </g>
      </g>
      <g id="g96">
        <g id="g98">
          <g id="g104">
            <path id="path112" style="fill-rule:evenodd;fill:url(#linearGradient106)" d="m64.602 1.602c0.586 0.32 0.839 0.801 0.761 1.441l-1.441 1.078c-0.668 0.801-1.199 1.293-1.602 1.481-0.425 0.187-1.05 0.254-1.879 0.199-0.347-0.023-0.972-0.105-1.879-0.238-0.75-0.11-1.32-0.281-1.722-0.52-0.238-0.133-0.438-0.293-0.598-0.48-0.375-0.028-0.613-0.043-0.719-0.043h-1.839c-0.293-0.024-0.508-0.024-0.641 0h-0.039c-0.16 0.054-0.27 0.203-0.32 0.441-0.11 0.453 0.16 0.762 0.796 0.922 0.055 0.024 0.348 0.051 0.883 0.078 0.133 0 0.254 0.016 0.36 0.043 0.132 0.051 0.226 0.145 0.281 0.278 0.051 0.082 0.066 0.242 0.039 0.48v0.039c-0.055 0.242-0.039 0.414 0.039 0.52 0.27 0.187 0.453 0.359 0.563 0.519-0.055 0.348 0 0.652 0.16 0.922l0.558 0.52c0.399 0.183 0.774 0.238 1.117 0.16 0.348 0.023 0.536 0.09 0.563 0.199 0 0.187 0.039 0.398 0.117 0.641 0.11 0.32 0.402 0.597 0.883 0.839 0.211 0.133 0.465 0.254 0.758 0.36-0.16 0.64 0.109 0.984 0.801 1.039 0.668 0.054 1.199 0 1.601-0.16 0.32-0.133 0.574-0.321 0.758-0.559 0.082-0.082 0.266-0.375 0.562-0.883l1.2 0.645c0.398-0.188 0.757-0.375 1.078-0.563 0.402-0.265 0.722-0.531 0.961-0.801 0.105-0.132 0.215-0.265 0.32-0.398 0.32-0.508 0.508-1.121 0.559-1.84 0.027-0.426 0.015-0.812-0.039-1.16-0.055-0.266-0.133-0.492-0.243-0.68-0.132-0.293-0.316-0.629-0.558-1-0.188-0.32-0.266-0.695-0.239-1.121 0-0.16 0.079-0.613 0.239-1.359 0-0.055 0.015-0.106 0.039-0.16 0.082-0.481 0.07-0.867-0.039-1.16-0.531-0.106-1.051-0.094-1.559 0.043-0.215 0.078-0.426 0.156-0.64 0.238z" inkscape:connector-curvature="0"/>
          </g>
        </g>
      </g>
      <g id="g114">
        <g id="g116">
          <g id="g122">
            <path id="path130" style="fill-rule:evenodd;fill:url(#linearGradient124)" d="m52.883 23.121c-0.133-0.105-0.242-0.172-0.321-0.199-0.374-0.082-0.757 0.027-1.16 0.32-0.027 0.028-0.066 0.055-0.121 0.079-0.051 0.027-0.09 0.054-0.117 0.082-0.133 0.16-0.226 0.32-0.281 0.48-0.051 0.184-0.067 0.465-0.039 0.84l0.117 1.84c0.027 0.347 0.121 0.625 0.281 0.84 0.106 0.105 0.36 0.304 0.762 0.597 0.156 0.11 0.371 0.309 0.637 0.602 0.242 0.265 0.441 0.453 0.601 0.558 0.32 0.188 0.985 0.282 2 0.282l2.121 0.679c0.426 0.852 1.504 1.254 3.239 1.2 0.507-0.024 1.039-0.2 1.601-0.52 1.707-0.934 2.184-2.012 1.438-3.238-0.184-0.293-0.293-0.496-0.317-0.602-0.054-0.16-0.082-0.398-0.082-0.719 0-0.535-0.039-0.855-0.121-0.96-0.078-0.161-0.344-0.239-0.801-0.239h-0.039c-0.371 0.024-0.64 0.024-0.801 0-0.265-0.027-0.425-0.16-0.476-0.402-0.055-0.106 0-0.371 0.156-0.801l-0.797-0.918c-0.027 0.027-0.054 0.039-0.082 0.039-0.105 0.028-0.226 0.094-0.359 0.199-0.133 0.137-0.242 0.215-0.32 0.243-0.133 0.05-0.293 0.078-0.481 0.078h-0.078c-0.27 0-0.453-0.039-0.563-0.117-0.187-0.137-0.265-0.442-0.238-0.922 0.028-0.188 0.039-0.348 0.039-0.481-0.027-0.16-0.078-0.265-0.16-0.32-0.051-0.055-0.117-0.094-0.199-0.121-0.106 0-0.227 0.015-0.36 0.043h-0.121c-0.214 0.051-0.371 0.105-0.48 0.16-0.023 0.023-0.051 0.039-0.078 0.039-0.082 0.105-0.121 0.215-0.121 0.32-0.028 0.188-0.051 0.321-0.082 0.399-0.133 0.265-0.41 0.441-0.84 0.519-0.051 0-0.426 0.028-1.117 0.082-0.028 0.239-0.133 0.426-0.321 0.559-0.187 0.16-0.398 0.226-0.64 0.199-0.215-0.023-0.426-0.16-0.641-0.398-0.105-0.106-0.183-0.215-0.238-0.321z" inkscape:connector-curvature="0"/>
          </g>
        </g>
      </g>
      <g id="g132">
        <g id="g134">
          <g id="g140">
            <path id="path148" style="fill-rule:evenodd;fill:url(#linearGradient142)" d="m61.523 19.203c-0.054-0.296-0.148-0.574-0.281-0.839-0.242-0.481-0.547-0.59-0.922-0.321-0.05 0.024-0.093 0.117-0.117 0.278-0.109 0.32-0.16 0.894-0.16 1.722 0 0.531 0.012 1.012 0.039 1.438 0.055 0.64 0.133 1.121 0.242 1.441h0.039l0.801 0.918 0.078 0.121v-1.597c0-0.641 0.094-1.575 0.281-2.801v-0.36z" inkscape:connector-curvature="0"/>
          </g>
        </g>
      </g>
      <g id="g150">
        <g id="g152">
          <g id="g158">
            <path id="path166" style="fill-rule:evenodd;fill:url(#linearGradient160)" d="m43.203 14.321c-0.16-1.36-0.242-2.266-0.242-2.719-0.293-0.133-0.625-0.012-1 0.359l-0.039 0.039c-0.078 0.11-0.172 0.215-0.281 0.321-0.211 0.265-0.387 0.519-0.52 0.761-0.133 0.239-0.226 0.465-0.277 0.68 0 0.16 0.011 0.305 0.039 0.441 0 0.426-0.016 0.746-0.039 0.957-0.11-0.027-0.203-0.039-0.282-0.039-0.214-0.027-0.386-0.05-0.519-0.078-0.266-0.027-0.481-0.043-0.641-0.043-0.054 0-0.105 0.016-0.16 0.043-0.105 0.051-0.199 0.133-0.281 0.239-0.133 0.187-0.184 0.464-0.16 0.839v0.161c0.027 0.398 0.121 0.734 0.281 1 0.055 0.105 0.281 0.386 0.68 0.839 0.242 0.293 0.375 0.586 0.398 0.879v1.52c0 0.855 0.016 1.375 0.043 1.562 0.106 0.664 0.359 1.067 0.758 1.2 0.109 0.027 0.293 0.027 0.562 0 0.239-0.028 0.415-0.012 0.52 0.039 0.078 0.054 0.172 0.16 0.277 0.32 0.137 0.16 0.227 0.266 0.282 0.32 0.402 0.348 1.214 0.613 2.441 0.801 0.828 0.078 1.828-0.227 3-0.922l1.758-0.437 0.441-0.121 3.121-0.762c0.051-0.238 0.305-0.504 0.758-0.797 0.559-0.375 0.895-0.629 1-0.762 0.402-0.558 0.613-1.012 0.641-1.359 0.027-0.106 0.027-0.32 0-0.641-0.028-0.238 0-0.441 0.082-0.597 0.051-0.137 0.238-0.321 0.558-0.563 0.266-0.187 0.426-0.398 0.481-0.641 0.055-0.371 0.055-0.824 0-1.359-0.028-0.105-0.055-0.227-0.082-0.359-0.024-0.293-0.067-0.453-0.117-0.481-0.028 0-0.055-0.012-0.082-0.039h-0.36c-0.613-0.109-1.199-0.015-1.762 0.281-0.05 0.024-0.183 0.145-0.398 0.36-0.055 0.078-0.121 0.16-0.199 0.238-0.293 0.348-0.508 0.508-0.641 0.481-0.187-0.028-0.304-0.145-0.359-0.36-0.028-0.105-0.082-0.293-0.16-0.558-0.055-0.11-0.161-0.254-0.321-0.442-0.05-0.055-0.105-0.121-0.16-0.203-0.105-0.105-0.226-0.223-0.359-0.355-0.321-0.321-0.641-0.387-0.961-0.204-0.156 0.133-0.305 0.243-0.438 0.321-0.214 0.16-0.386 0.293-0.519 0.398-0.375 0.297-0.656 0.508-0.84 0.641-0.348 0.215-0.629 0.226-0.84 0.043-0.055-0.055-0.137-0.281-0.242-0.684-0.051-0.293-0.188-0.426-0.398-0.398-0.083 0-0.149 0.015-0.2 0.039-0.027 0.027-0.054 0.043-0.082 0.043-0.16 0.133-0.265 0.359-0.32 0.679-0.027 0.586-0.051 0.961-0.078 1.122l-1.723 0.796c-0.183 0.161-0.332 0.27-0.437 0.321-0.106 0.054-0.2 0.093-0.282 0.121h-0.238c-0.16-0.028-0.308-0.172-0.441-0.442-0.239-0.453-0.426-1.25-0.559-2.398-0.027-0.027-0.043-0.066-0.043-0.121 0-0.106-0.015-0.211-0.039-0.32z" inkscape:connector-curvature="0"/>
          </g>
        </g>
      </g>
      <path id="path168" style="fill-rule:evenodd;fill:#848958" d="m9.602 11.242c-0.133-0.054-0.293-0.121-0.481-0.199l0.039 0.078c0.125 0.102 0.266 0.141 0.422 0.121h0.02zm34.242 5.918c0.371 0.137 0.625 0.254 0.758 0.36-0.028 0.027-0.055 0.054-0.079 0.082 0.079-0.028 0.172-0.067 0.278-0.121 0.109-0.051 0.254-0.16 0.441-0.321l1.719-0.796c0.027-0.161 0.055-0.536 0.082-1.122 0.051-0.32 0.16-0.546 0.32-0.679l-0.722-0.16c0-0.161-0.012-0.387-0.039-0.684 0-0.266 0.027-0.492 0.082-0.68 0.371 0.028 0.613 0.215 0.718 0.563 0.055 0.211 0.067 0.519 0.039 0.918 0.055-0.028 0.121-0.039 0.2-0.039 0.214-0.028 0.347 0.105 0.402 0.398 0.105 0.403 0.184 0.629 0.238 0.68 0.215 0.187 0.496 0.176 0.84-0.039 0.188-0.133 0.469-0.348 0.84-0.641 0.133-0.105 0.309-0.238 0.519-0.398-0.343-0.403-1.039-0.293-2.078 0.32 0.133-0.906 0.145-1.734 0.039-2.48-0.613-0.082-1.265 0.039-1.961 0.359-0.824 0.348-1.292 0.801-1.398 1.359-0.055-0.48-0.133-0.8-0.242-0.961-0.16-0.183-0.438-0.211-0.84-0.078-0.48 0.106-0.73 0.317-0.758 0.641 0.028 0.238 0.051 0.465 0.078 0.68 0.426-0.11 0.84-0.055 1.242 0.16 0.426 0.238 0.774 0.586 1.04 1.039l-0.52 0.039c-0.934-0.051-1.535-0.332-1.801-0.84v0.043c0.133 1.145 0.321 1.945 0.563 2.398zm-13.121-3.558c-0.403-0.082-0.68-0.16-0.84-0.238 0.32-0.934 0.078-1.27-0.723-1-0.051 0.023-0.105 0.039-0.156 0.039v0.039c0.371 0.32 0.598 0.586 0.68 0.8l0.078 0.598c0.027 0.109 0.16 0.203 0.398 0.281 0.242 0.11 0.375 0.133 0.402 0.082 0.051 0 0.106-0.121 0.161-0.359 0.027-0.027 0.027-0.109 0-0.242zm-20.481-5.238v-0.043c-0.187-0.559-0.492-0.664-0.922-0.317-0.05 0.051-0.093 0.106-0.117 0.16 0.078 0.024 0.172 0.051 0.277 0.078 0.297 0.079 0.547 0.122 0.762 0.122z" inkscape:connector-curvature="0"/>
      <g id="g170">
        <g id="g172">
          <g id="g178">
            <path id="path186" style="fill-rule:evenodd;fill:url(#linearGradient180)" d="m63.762 14.762 0.398-0.242c0-0.453-0.117-0.731-0.359-0.84-0.293-0.106-0.813-0.106-1.559 0-0.773 0.109-1.265 0.281-1.48 0.519-0.348 0.43-0.188 0.762 0.48 1 0.508 0.188 1 0.27 1.481 0.243l0.082-0.039 0.957-0.641z" inkscape:connector-curvature="0"/>
          </g>
        </g>
      </g>
      <g id="g188">
        <g id="g190">
          <g id="g196">
            <path id="path204" style="fill-rule:evenodd;fill:url(#linearGradient198)" d="m61.121 16.364c-0.32-0.75-0.519-0.883-0.598-0.403-0.136 0.535-0.027 0.762 0.317 0.68l0.281-0.277z" inkscape:connector-curvature="0"/>
          </g>
        </g>
      </g>
      <g id="g206">
        <g id="g208">
          <g id="g214">
            <path id="path222" style="fill-rule:evenodd;fill:url(#linearGradient216)" d="m30.723 13.602c0.027 0.133 0.027 0.215 0 0.238-0.055 0.242-0.106 0.363-0.161 0.363-0.027 0.051-0.16 0.024-0.402-0.082-0.238-0.082-0.371-0.172-0.398-0.281l-0.078-0.598c-0.082-0.214-0.309-0.48-0.68-0.8v-0.039c-0.668-0.641-1.149-1.469-1.442-2.485-0.054-0.156-0.093-0.289-0.121-0.398-0.027-0.078-0.039-0.16-0.039-0.238l-0.082-0.122c-0.078-0.187-0.25-0.32-0.519-0.398-0.399-0.16-0.813-0.133-1.239 0.078-0.425 0.215-0.667 0.535-0.718 0.961-0.188-0.48-0.641-0.652-1.364-0.519-0.636 0.105-1.132 0.347-1.476 0.718-0.348 0.348-0.469 0.879-0.363 1.602 0.214 0.558 0.297 0.867 0.242 0.918-0.133 0.187-0.574 0.226-1.321 0.121-0.402-0.055-0.707-0.039-0.921 0.039-0.161 0.055-0.266 0.133-0.321 0.238-0.023 0.028-0.05 0.055-0.078 0.082v0.84c-0.933-0.023-1.719-0.039-2.359-0.039-0.906 0-1.442 0.133-1.602 0.402-0.054 0.079-0.066 0.184-0.039 0.317 0.055 0.215 0.266 0.453 0.641 0.722 0.398 0.266 0.613 0.477 0.64 0.637 0.024 0.11 0.012 0.297-0.043 0.563-0.078 0.238-0.093 0.425-0.039 0.558 0.082 0.293 0.403 0.547 0.961 0.762 0.586 0.211 0.934 0.426 1.039 0.641 0.028 0.078 0.028 0.226 0 0.437 0 0.215 0.039 0.375 0.121 0.481 0.161 0.16 0.426 0.281 0.801 0.359 0.426 0.105 0.707 0.199 0.84 0.281 0.293 0.375 0.547 0.625 0.758 0.758l0.883 0.684c0.398 0.316 0.918 0.492 1.558 0.519 1.039 0.024 1.586 0.039 1.641 0.039 0.105 0.028 0.398 0.121 0.879 0.281 0.348 0.133 0.64 0.211 0.879 0.239 0.293 0.027 0.761-0.039 1.402-0.199 0.024 0 0.957-0.028 2.801-0.083 1.437 0 2.223-0.253 2.359-0.757h1.078c0.641-0.453 1.039-0.762 1.2-0.922 0.347-0.371 0.519-0.813 0.519-1.321 0-0.664-0.344-0.984-1.039-0.957-0.027-0.16-0.027-0.429 0-0.8 0.027-0.106 0.039-0.2 0.039-0.282 0-0.214-0.012-0.386-0.039-0.519v-0.121c-0.027-0.051-0.051-0.106-0.078-0.16-0.055-0.133-0.105-0.211-0.16-0.239-0.082-0.054-0.309-0.093-0.68-0.121-0.027-0.16 0.067-0.894 0.277-2.199 0.028-0.187 0.043-0.359 0.043-0.519 0.024-0.696-0.148-1.188-0.519-1.481-0.055-0.027-0.109-0.066-0.16-0.121-0.215-0.078-0.535-0.145-0.961-0.199-0.586-0.028-0.961 0.054-1.121 0.238-0.078 0.082-0.149 0.23-0.2 0.441-0.027 0.161-0.105 0.282-0.242 0.36-0.05 0.027-0.132 0.043-0.238 0.043-0.105-0.028-0.187 0-0.238 0.078-0.137 0.109-0.188 0.293-0.16 0.562 0.023 0.161 0.039 0.293 0.039 0.399z" inkscape:connector-curvature="0"/>
          </g>
        </g>
      </g>
      <g id="g224">
        <g id="g226">
          <g id="g232">
            <path id="path240" style="fill-rule:evenodd;fill:url(#linearGradient234)" d="m56.242 4.563c0.16 0.183 0.36 0.344 0.602 0.48 0.398 0.239 0.972 0.41 1.718 0.52 0.907 0.133 1.532 0.211 1.879 0.238 0.829 0.055 1.454-0.012 1.883-0.199 0.399-0.188 0.93-0.68 1.598-1.481l1.441-1.082c0.078-0.636-0.175-1.117-0.761-1.437-0.508-0.27-1.266-0.414-2.278-0.442-0.773-0.027-2.121 0.106-4.043 0.403-0.933 0.105-1.64 0.344-2.117 0.719-0.269 0.21-0.426 0.425-0.48 0.636-0.055 0.188-0.028 0.457 0.078 0.801 0.105 0.324 0.265 0.602 0.48 0.844z" inkscape:connector-curvature="0"/>
          </g>
        </g>
      </g>
      <g id="g242">
        <g id="g244">
          <g id="g250">
            <path id="path258" style="fill-rule:evenodd;fill:url(#linearGradient252)" d="m53.004 4.403c0.637 0.132 1.078 0.078 1.316-0.161l0.242-0.281 0.68-0.801c-0.105-0.211-0.254-0.519-0.441-0.918-0.16-0.347-0.399-0.574-0.719-0.679-0.133-0.055-0.398-0.067-0.801-0.043-0.398 0.027-0.664 0.043-0.801 0.043-0.453 0-0.73 0.011-0.839 0.039-0.317 0.051-0.547 0.187-0.68 0.398-0.266 0.481-0.16 0.977 0.32 1.481l0.039 0.039c0.43 0.484 0.895 0.762 1.403 0.844 0.078 0.023 0.172 0.039 0.281 0.039z" inkscape:connector-curvature="0"/>
          </g>
        </g>
      </g>
      <g id="g260">
        <g id="g262">
          <g id="g268">
            <path id="path276" style="fill-rule:evenodd;fill:url(#linearGradient270)" d="m16.961 8.242c0.027-0.054 0.066-0.109 0.121-0.16 0.106-0.16 0.281-0.308 0.52-0.441 0.105-0.027 0.214-0.067 0.32-0.121 0.398-0.156 0.707-0.317 0.922-0.477 0.051-0.027 0.094-0.066 0.117-0.121 0.426-0.453 0.453-0.84 0.082-1.16-0.16-0.105-0.387-0.215-0.68-0.32-0.535-0.188-1.015-0.278-1.441-0.278-0.32 0-0.613 0.051-0.879 0.157-0.105 0.027-0.215 0.093-0.32 0.199-0.161 0.16-0.321 0.402-0.481 0.722-0.082 0.133-0.148 0.254-0.199 0.36-0.215 0.265-0.414 0.414-0.602 0.441-0.238 0.024-0.48-0.121-0.718-0.441-0.188-0.238-0.336-0.399-0.442-0.481-0.078-0.027-0.133-0.039-0.16-0.039-0.105-0.027-0.266 0.067-0.48 0.282-0.079 0.105-0.161 0.21-0.239 0.316-0.214 0.32-0.375 0.547-0.48 0.684-0.051 0.105-0.094 0.171-0.121 0.199-0.371 0.398-0.719 0.652-1.039 0.758-0.133 0.027-0.305 0.043-0.52 0.043s-0.465-0.043-0.762-0.122c-0.105-0.027-0.199-0.054-0.277-0.082-0.535-0.105-0.867-0.066-1 0.122-0.027 0.027-0.043 0.105-0.043 0.238 0.028 0.133 0.016 0.226-0.039 0.281-0.16 0.242-0.504 0.348-1.039 0.32-0.055 0-0.121-0.015-0.199-0.039-0.481-0.027-0.828-0.039-1.039-0.039-0.242 0-0.414 0.012-0.524 0.039-0.023 0-0.05 0.012-0.078 0.039-0.133 0.11-0.187 0.309-0.16 0.602 0.078 0.508 0.387 0.867 0.922 1.078 0.266 0.082 0.625 0.094 1.078 0.043 0.535-0.082 0.906-0.109 1.121-0.082 0.184 0.027 0.438 0.094 0.758 0.199l0.043 0.043c0.051 0.024 0.09 0.039 0.117 0.039 0.188 0.078 0.348 0.145 0.481 0.199 0.082 0.028 0.16 0.04 0.242 0.04 1.199 0.187 2.094 0.199 2.679 0.039 0.321-0.079 0.692-0.289 1.118-0.637 0.507-0.402 0.679-0.719 0.519-0.961l1.32-0.242 0.442-0.039c0.32-0.028 0.558-0.172 0.719-0.438 0.082-0.137 0.187-0.39 0.32-0.762z" inkscape:connector-curvature="0"/>
          </g>
        </g>
      </g>
      <g id="g278">
        <g id="g280">
          <g id="g286">
            <path id="path294" style="fill-rule:evenodd;fill:url(#linearGradient288)" d="m31.363 7.68h-0.043c-0.105 0-0.437 0.016-1 0.043-0.613 0-1.023 0.039-1.238 0.117-0.215 0.082-0.359 0.203-0.441 0.363-0.051 0.133-0.079 0.305-0.079 0.516 0 1.016 0.399 1.484 1.2 1.402h2c0.16-0.187 0.265-0.492 0.32-0.918 0.055-0.375 0.039-0.695-0.039-0.961-0.027-0.109-0.066-0.187-0.121-0.242-0.133-0.16-0.32-0.265-0.559-0.32z" inkscape:connector-curvature="0"/>
          </g>
        </g>
      </g>
      <g id="g296">
        <g id="g298">
          <g id="g304">
            <path id="path312" style="fill-rule:evenodd;fill:url(#linearGradient306)" d="m27.242 7.723c0.078-0.426-0.105-0.547-0.558-0.359-0.403 0.183-0.442 0.48-0.122 0.878l0.68-0.519z" inkscape:connector-curvature="0"/>
          </g>
        </g>
      </g>
      <g id="g314">
        <g id="g316">
          <g id="g322">
            <path id="path330" style="fill-rule:evenodd;fill:url(#linearGradient324)" d="m20.16 7.242c-0.051-0.027-0.09-0.039-0.117-0.039-0.188-0.027-0.414-0.015-0.68 0.039-0.562 0.133-0.867 0.387-0.922 0.758-0.05 0.321 0.016 0.563 0.2 0.719 0.082 0.082 0.187 0.148 0.32 0.203 0.187 0.078 0.586 0.121 1.199 0.121l0.043-0.121 0.238-0.84 0.121-0.519c-0.105-0.16-0.242-0.27-0.402-0.321z" inkscape:connector-curvature="0"/>
          </g>
        </g>
      </g>
    </g>
  </g>
<metadata><rdf:RDF><cc:Work><dc:format>image/svg+xml</dc:format><dc:type rdf:resource="http://purl.org/dc/dcmitype/StillImage"/><cc:license rdf:resource="http://creativecommons.org/licenses/publicdomain/"/><dc:publisher><cc:Agent rdf:about="http://openclipart.org/"><dc:title>Openclipart</dc:title></cc:Agent></dc:publisher></cc:Work><cc:License rdf:about="http://creativecommons.org/licenses/publicdomain/"><cc:permits rdf:resource="http://creativecommons.org/ns#Reproduction"/><cc:permits rdf:resource="http://creativecommons.org/ns#Distribution"/><cc:permits rdf:resource="http://creativecommons.org/ns#DerivativeWorks"/></cc:License></rdf:RDF></metadata></svg>
